<mxfile host="app.diagrams.net" modified="2023-10-31T05:37:15.877Z" agent="Mozilla/5.0 (Windows NT 10.0; Win64; x64) AppleWebKit/537.36 (KHTML, like Gecko) Chrome/116.0.5845.931 YaBrowser/23.9.3.931 Yowser/2.5 Safari/537.36" etag="vcC83hGDTx0pjIbs2b01" version="22.0.8" type="device">
  <diagram name="Страница — 1" id="t-SttzXQSCC-rWzZ8TOx">
    <mxGraphModel dx="2489" dy="479" grid="1" gridSize="10" guides="1" tooltips="1" connect="1" arrows="1" fold="1" page="1" pageScale="1" pageWidth="827" pageHeight="1169" math="0" shadow="0">
      <root>
        <mxCell id="0" />
        <mxCell id="1" parent="0" />
        <mxCell id="7sYmuncNVX-oGqdXBu7q-1" value="&lt;p style=&quot;margin:0px;margin-top:4px;text-align:center;&quot;&gt;&lt;i&gt;&amp;lt;&amp;lt;Interface&amp;gt;&amp;gt;&lt;/i&gt;&lt;br&gt;&lt;/p&gt;&lt;p style=&quot;margin:0px;margin-top:4px;text-align:center;&quot;&gt;&lt;i&gt;&lt;b&gt;IDocument&lt;/b&gt;&lt;/i&gt;&lt;/p&gt;&lt;hr size=&quot;1&quot;&gt;&lt;p style=&quot;margin:0px;margin-left:4px;&quot;&gt;+ InsertParagraph(const std::string&amp;amp; text,&amp;nbsp;&lt;span style=&quot;background-color: initial;&quot;&gt;&lt;span style=&quot;background-color: initial;&quot;&gt;std::optional&amp;lt;size_t&amp;gt; position)&lt;/span&gt;&lt;/span&gt;: std::shared_ptr&amp;lt;IParagraph&amp;gt;&lt;span style=&quot;background-color: initial;&quot;&gt;&amp;nbsp;&lt;/span&gt;&lt;/p&gt;&lt;p style=&quot;margin:0px;margin-left:4px;&quot;&gt;+&amp;nbsp;InsertImage(const std::string&amp;amp; path, int width, int height,&amp;nbsp;&lt;span style=&quot;background-color: initial;&quot;&gt;&lt;span style=&quot;background-color: initial;&quot;&gt;std::optional&amp;lt;size_t&amp;gt; position)&lt;/span&gt;&lt;/span&gt;&lt;span style=&quot;background-color: initial;&quot;&gt;: std::shared_ptr&amp;lt;IImage&amp;gt;&lt;/span&gt;&lt;/p&gt;+ GetItemsCount() : size_t&lt;br&gt;+ GetItem(size_t index) : CConstDocumentItem&lt;br&gt;+ GetItem(size_t index) : CDocumentItem&lt;br&gt;+ DeleteItem(size_t index)&lt;br&gt;+&amp;nbsp;GetTitle() : std::string&lt;br&gt;+&amp;nbsp;SetTitle(const std::string&amp;amp; title)&lt;br&gt;+&amp;nbsp;CanUndo(): bool&lt;br&gt;+ Undo()&lt;br&gt;+&amp;nbsp;CanRedo(): bool&lt;br&gt;+&amp;nbsp;Redo ()&lt;br&gt;+ Save(const std::string&amp;amp; path)" style="verticalAlign=top;align=left;overflow=fill;fontSize=12;fontFamily=Helvetica;html=1;whiteSpace=wrap;" parent="1" vertex="1">
          <mxGeometry x="120" y="20" width="630" height="240" as="geometry" />
        </mxCell>
        <mxCell id="7sYmuncNVX-oGqdXBu7q-2" value="CDocument" style="swimlane;fontStyle=0;childLayout=stackLayout;horizontal=1;startSize=26;fillColor=none;horizontalStack=0;resizeParent=1;resizeParentMax=0;resizeLast=0;collapsible=1;marginBottom=0;whiteSpace=wrap;html=1;" parent="1" vertex="1">
          <mxGeometry x="190" y="382" width="470" height="562" as="geometry" />
        </mxCell>
        <mxCell id="7sYmuncNVX-oGqdXBu7q-3" value="&lt;p style=&quot;border-color: var(--border-color); margin: 0px 0px 0px 4px;&quot;&gt;+ InsertParagraph(const std::string&amp;amp; text,&amp;nbsp;std::optional&amp;lt;size_t&amp;gt; position): std::shared_ptr&amp;lt;IParagraph&amp;gt;&lt;span style=&quot;border-color: var(--border-color); background-color: initial;&quot;&gt;&amp;nbsp;&lt;/span&gt;&lt;/p&gt;&lt;div&gt;&lt;span style=&quot;border-color: var(--border-color); background-color: initial;&quot;&gt;&lt;br&gt;&lt;/span&gt;&lt;/div&gt;" style="text;strokeColor=none;fillColor=none;align=left;verticalAlign=top;spacingLeft=4;spacingRight=4;overflow=hidden;rotatable=0;points=[[0,0.5],[1,0.5]];portConstraint=eastwest;whiteSpace=wrap;html=1;" parent="7sYmuncNVX-oGqdXBu7q-2" vertex="1">
          <mxGeometry y="26" width="470" height="44" as="geometry" />
        </mxCell>
        <mxCell id="7sYmuncNVX-oGqdXBu7q-4" value="+&amp;nbsp;InsertImage(const std::string&amp;amp; path, int width, int height,&amp;nbsp;std::optional&amp;lt;size_t&amp;gt; position)&lt;span style=&quot;border-color: var(--border-color); background-color: initial;&quot;&gt;: std::shared_ptr&amp;lt;IImage&amp;gt;&lt;/span&gt;" style="text;strokeColor=none;fillColor=none;align=left;verticalAlign=top;spacingLeft=4;spacingRight=4;overflow=hidden;rotatable=0;points=[[0,0.5],[1,0.5]];portConstraint=eastwest;whiteSpace=wrap;html=1;" parent="7sYmuncNVX-oGqdXBu7q-2" vertex="1">
          <mxGeometry y="70" width="470" height="50" as="geometry" />
        </mxCell>
        <mxCell id="7sYmuncNVX-oGqdXBu7q-5" value="+ GetItemsCount() : size_t" style="text;strokeColor=none;fillColor=none;align=left;verticalAlign=top;spacingLeft=4;spacingRight=4;overflow=hidden;rotatable=0;points=[[0,0.5],[1,0.5]];portConstraint=eastwest;whiteSpace=wrap;html=1;" parent="7sYmuncNVX-oGqdXBu7q-2" vertex="1">
          <mxGeometry y="120" width="470" height="26" as="geometry" />
        </mxCell>
        <mxCell id="7sYmuncNVX-oGqdXBu7q-7" value="+ GetItem(size_t index) : CConstDocumentItem" style="text;strokeColor=none;fillColor=none;align=left;verticalAlign=top;spacingLeft=4;spacingRight=4;overflow=hidden;rotatable=0;points=[[0,0.5],[1,0.5]];portConstraint=eastwest;whiteSpace=wrap;html=1;" parent="7sYmuncNVX-oGqdXBu7q-2" vertex="1">
          <mxGeometry y="146" width="470" height="26" as="geometry" />
        </mxCell>
        <mxCell id="7sYmuncNVX-oGqdXBu7q-8" value="+ GetItem(size_t index) : CDocumentItem" style="text;strokeColor=none;fillColor=none;align=left;verticalAlign=top;spacingLeft=4;spacingRight=4;overflow=hidden;rotatable=0;points=[[0,0.5],[1,0.5]];portConstraint=eastwest;whiteSpace=wrap;html=1;" parent="7sYmuncNVX-oGqdXBu7q-2" vertex="1">
          <mxGeometry y="172" width="470" height="26" as="geometry" />
        </mxCell>
        <mxCell id="7sYmuncNVX-oGqdXBu7q-9" value="+ DeleteItem(size_t index)" style="text;strokeColor=none;fillColor=none;align=left;verticalAlign=top;spacingLeft=4;spacingRight=4;overflow=hidden;rotatable=0;points=[[0,0.5],[1,0.5]];portConstraint=eastwest;whiteSpace=wrap;html=1;" parent="7sYmuncNVX-oGqdXBu7q-2" vertex="1">
          <mxGeometry y="198" width="470" height="26" as="geometry" />
        </mxCell>
        <mxCell id="7sYmuncNVX-oGqdXBu7q-10" value="+&amp;nbsp;GetTitle() : std::string" style="text;strokeColor=none;fillColor=none;align=left;verticalAlign=top;spacingLeft=4;spacingRight=4;overflow=hidden;rotatable=0;points=[[0,0.5],[1,0.5]];portConstraint=eastwest;whiteSpace=wrap;html=1;" parent="7sYmuncNVX-oGqdXBu7q-2" vertex="1">
          <mxGeometry y="224" width="470" height="26" as="geometry" />
        </mxCell>
        <mxCell id="7sYmuncNVX-oGqdXBu7q-11" value="+&amp;nbsp;SetTitle(const std::string&amp;amp; title)" style="text;strokeColor=none;fillColor=none;align=left;verticalAlign=top;spacingLeft=4;spacingRight=4;overflow=hidden;rotatable=0;points=[[0,0.5],[1,0.5]];portConstraint=eastwest;whiteSpace=wrap;html=1;" parent="7sYmuncNVX-oGqdXBu7q-2" vertex="1">
          <mxGeometry y="250" width="470" height="26" as="geometry" />
        </mxCell>
        <mxCell id="7sYmuncNVX-oGqdXBu7q-12" value="+&amp;nbsp;CanUndo(): bool" style="text;strokeColor=none;fillColor=none;align=left;verticalAlign=top;spacingLeft=4;spacingRight=4;overflow=hidden;rotatable=0;points=[[0,0.5],[1,0.5]];portConstraint=eastwest;whiteSpace=wrap;html=1;" parent="7sYmuncNVX-oGqdXBu7q-2" vertex="1">
          <mxGeometry y="276" width="470" height="26" as="geometry" />
        </mxCell>
        <mxCell id="7sYmuncNVX-oGqdXBu7q-13" value="+ Undo()" style="text;strokeColor=none;fillColor=none;align=left;verticalAlign=top;spacingLeft=4;spacingRight=4;overflow=hidden;rotatable=0;points=[[0,0.5],[1,0.5]];portConstraint=eastwest;whiteSpace=wrap;html=1;" parent="7sYmuncNVX-oGqdXBu7q-2" vertex="1">
          <mxGeometry y="302" width="470" height="26" as="geometry" />
        </mxCell>
        <mxCell id="7sYmuncNVX-oGqdXBu7q-14" value="+&amp;nbsp;CanRedo(): bool" style="text;strokeColor=none;fillColor=none;align=left;verticalAlign=top;spacingLeft=4;spacingRight=4;overflow=hidden;rotatable=0;points=[[0,0.5],[1,0.5]];portConstraint=eastwest;whiteSpace=wrap;html=1;" parent="7sYmuncNVX-oGqdXBu7q-2" vertex="1">
          <mxGeometry y="328" width="470" height="26" as="geometry" />
        </mxCell>
        <mxCell id="7sYmuncNVX-oGqdXBu7q-15" value="+&amp;nbsp;Redo ()" style="text;strokeColor=none;fillColor=none;align=left;verticalAlign=top;spacingLeft=4;spacingRight=4;overflow=hidden;rotatable=0;points=[[0,0.5],[1,0.5]];portConstraint=eastwest;whiteSpace=wrap;html=1;" parent="7sYmuncNVX-oGqdXBu7q-2" vertex="1">
          <mxGeometry y="354" width="470" height="26" as="geometry" />
        </mxCell>
        <mxCell id="7sYmuncNVX-oGqdXBu7q-16" value="+ Save(const std::string&amp;amp; path)" style="text;strokeColor=none;fillColor=none;align=left;verticalAlign=top;spacingLeft=4;spacingRight=4;overflow=hidden;rotatable=0;points=[[0,0.5],[1,0.5]];portConstraint=eastwest;whiteSpace=wrap;html=1;" parent="7sYmuncNVX-oGqdXBu7q-2" vertex="1">
          <mxGeometry y="380" width="470" height="26" as="geometry" />
        </mxCell>
        <mxCell id="7sYmuncNVX-oGqdXBu7q-37" value="+&amp;nbsp;&amp;nbsp;CheckPosForException(size_t pos)" style="text;strokeColor=none;fillColor=none;align=left;verticalAlign=top;spacingLeft=4;spacingRight=4;overflow=hidden;rotatable=0;points=[[0,0.5],[1,0.5]];portConstraint=eastwest;whiteSpace=wrap;html=1;" parent="7sYmuncNVX-oGqdXBu7q-2" vertex="1">
          <mxGeometry y="406" width="470" height="26" as="geometry" />
        </mxCell>
        <mxCell id="7sYmuncNVX-oGqdXBu7q-33" value="- m_items: std::vector&amp;lt;CDocumentItem&amp;gt;" style="text;strokeColor=none;fillColor=none;align=left;verticalAlign=top;spacingLeft=4;spacingRight=4;overflow=hidden;rotatable=0;points=[[0,0.5],[1,0.5]];portConstraint=eastwest;whiteSpace=wrap;html=1;" parent="7sYmuncNVX-oGqdXBu7q-2" vertex="1">
          <mxGeometry y="432" width="470" height="26" as="geometry" />
        </mxCell>
        <mxCell id="7sYmuncNVX-oGqdXBu7q-34" value="-&amp;nbsp;&amp;nbsp;m_pathToTmpImagesDir :&amp;nbsp;std::filesystem::path&lt;span style=&quot;background-color: initial;&quot;&gt;&lt;br&gt;&lt;br&gt;&lt;/span&gt;" style="text;strokeColor=none;fillColor=none;align=left;verticalAlign=top;spacingLeft=4;spacingRight=4;overflow=hidden;rotatable=0;points=[[0,0.5],[1,0.5]];portConstraint=eastwest;whiteSpace=wrap;html=1;" parent="7sYmuncNVX-oGqdXBu7q-2" vertex="1">
          <mxGeometry y="458" width="470" height="26" as="geometry" />
        </mxCell>
        <mxCell id="7sYmuncNVX-oGqdXBu7q-35" value="-&amp;nbsp;&amp;nbsp;m_pathToTmpImagesDir :&amp;nbsp;std::filesystem::path&lt;span style=&quot;background-color: initial;&quot;&gt;&lt;br&gt;&lt;br&gt;&lt;/span&gt;" style="text;strokeColor=none;fillColor=none;align=left;verticalAlign=top;spacingLeft=4;spacingRight=4;overflow=hidden;rotatable=0;points=[[0,0.5],[1,0.5]];portConstraint=eastwest;whiteSpace=wrap;html=1;" parent="7sYmuncNVX-oGqdXBu7q-2" vertex="1">
          <mxGeometry y="484" width="470" height="26" as="geometry" />
        </mxCell>
        <mxCell id="7sYmuncNVX-oGqdXBu7q-36" value="- m_history :&amp;nbsp;CHistory&amp;nbsp;&lt;span style=&quot;background-color: initial;&quot;&gt;&lt;br&gt;&lt;/span&gt;" style="text;strokeColor=none;fillColor=none;align=left;verticalAlign=top;spacingLeft=4;spacingRight=4;overflow=hidden;rotatable=0;points=[[0,0.5],[1,0.5]];portConstraint=eastwest;whiteSpace=wrap;html=1;" parent="7sYmuncNVX-oGqdXBu7q-2" vertex="1">
          <mxGeometry y="510" width="470" height="26" as="geometry" />
        </mxCell>
        <mxCell id="7sYmuncNVX-oGqdXBu7q-38" value="- m_title : std::string&lt;span style=&quot;background-color: initial;&quot;&gt;&lt;br&gt;&lt;/span&gt;" style="text;strokeColor=none;fillColor=none;align=left;verticalAlign=top;spacingLeft=4;spacingRight=4;overflow=hidden;rotatable=0;points=[[0,0.5],[1,0.5]];portConstraint=eastwest;whiteSpace=wrap;html=1;" parent="7sYmuncNVX-oGqdXBu7q-2" vertex="1">
          <mxGeometry y="536" width="470" height="26" as="geometry" />
        </mxCell>
        <mxCell id="7sYmuncNVX-oGqdXBu7q-6" value="" style="endArrow=block;dashed=1;endFill=0;endSize=12;html=1;rounded=0;entryX=0.472;entryY=0.995;entryDx=0;entryDy=0;entryPerimeter=0;exitX=0.5;exitY=0;exitDx=0;exitDy=0;" parent="1" source="7sYmuncNVX-oGqdXBu7q-2" target="7sYmuncNVX-oGqdXBu7q-1" edge="1">
          <mxGeometry width="160" relative="1" as="geometry">
            <mxPoint x="280" y="330" as="sourcePoint" />
            <mxPoint x="440" y="330" as="targetPoint" />
          </mxGeometry>
        </mxCell>
        <mxCell id="7sYmuncNVX-oGqdXBu7q-17" value="CConstDocumentItem" style="swimlane;fontStyle=0;childLayout=stackLayout;horizontal=1;startSize=26;fillColor=none;horizontalStack=0;resizeParent=1;resizeParentMax=0;resizeLast=0;collapsible=1;marginBottom=0;whiteSpace=wrap;html=1;" parent="1" vertex="1">
          <mxGeometry x="-320" y="156" width="280" height="160" as="geometry" />
        </mxCell>
        <mxCell id="7sYmuncNVX-oGqdXBu7q-18" value="+&amp;nbsp;GetImage() :&amp;nbsp;std::shared_ptr&amp;lt;const IImage&amp;gt;" style="text;strokeColor=none;fillColor=none;align=left;verticalAlign=top;spacingLeft=4;spacingRight=4;overflow=hidden;rotatable=0;points=[[0,0.5],[1,0.5]];portConstraint=eastwest;whiteSpace=wrap;html=1;" parent="7sYmuncNVX-oGqdXBu7q-17" vertex="1">
          <mxGeometry y="26" width="280" height="44" as="geometry" />
        </mxCell>
        <mxCell id="7sYmuncNVX-oGqdXBu7q-19" value="+GetParagraph(): std::shared_ptr&amp;lt;const IParagraph&amp;gt;" style="text;strokeColor=none;fillColor=none;align=left;verticalAlign=top;spacingLeft=4;spacingRight=4;overflow=hidden;rotatable=0;points=[[0,0.5],[1,0.5]];portConstraint=eastwest;whiteSpace=wrap;html=1;" parent="7sYmuncNVX-oGqdXBu7q-17" vertex="1">
          <mxGeometry y="70" width="280" height="40" as="geometry" />
        </mxCell>
        <mxCell id="7sYmuncNVX-oGqdXBu7q-20" value="-&amp;nbsp;m_item:&amp;nbsp;std::variant&amp;lt; std::shared_ptr&amp;lt;IImage&amp;gt;, std::shared_ptr&amp;lt;IParagraph&amp;gt;&amp;gt;" style="text;strokeColor=none;fillColor=none;align=left;verticalAlign=top;spacingLeft=4;spacingRight=4;overflow=hidden;rotatable=0;points=[[0,0.5],[1,0.5]];portConstraint=eastwest;whiteSpace=wrap;html=1;" parent="7sYmuncNVX-oGqdXBu7q-17" vertex="1">
          <mxGeometry y="110" width="280" height="50" as="geometry" />
        </mxCell>
        <mxCell id="7sYmuncNVX-oGqdXBu7q-27" value="CDocumentItem" style="swimlane;fontStyle=0;childLayout=stackLayout;horizontal=1;startSize=26;fillColor=none;horizontalStack=0;resizeParent=1;resizeParentMax=0;resizeLast=0;collapsible=1;marginBottom=0;whiteSpace=wrap;html=1;" parent="1" vertex="1">
          <mxGeometry x="-310" y="410" width="280" height="110" as="geometry" />
        </mxCell>
        <mxCell id="7sYmuncNVX-oGqdXBu7q-28" value="+&amp;nbsp;GetImage() :&amp;nbsp;std::shared_ptr&amp;lt;IImage&amp;gt;" style="text;strokeColor=none;fillColor=none;align=left;verticalAlign=top;spacingLeft=4;spacingRight=4;overflow=hidden;rotatable=0;points=[[0,0.5],[1,0.5]];portConstraint=eastwest;whiteSpace=wrap;html=1;" parent="7sYmuncNVX-oGqdXBu7q-27" vertex="1">
          <mxGeometry y="26" width="280" height="44" as="geometry" />
        </mxCell>
        <mxCell id="7sYmuncNVX-oGqdXBu7q-29" value="+GetParagraph(): std::shared_ptr&amp;lt;IParagraph&amp;gt;" style="text;strokeColor=none;fillColor=none;align=left;verticalAlign=top;spacingLeft=4;spacingRight=4;overflow=hidden;rotatable=0;points=[[0,0.5],[1,0.5]];portConstraint=eastwest;whiteSpace=wrap;html=1;" parent="7sYmuncNVX-oGqdXBu7q-27" vertex="1">
          <mxGeometry y="70" width="280" height="40" as="geometry" />
        </mxCell>
        <mxCell id="7sYmuncNVX-oGqdXBu7q-22" value="Return" style="endArrow=open;endSize=12;dashed=1;html=1;rounded=0;exitX=0;exitY=0.75;exitDx=0;exitDy=0;entryX=1.015;entryY=0.762;entryDx=0;entryDy=0;entryPerimeter=0;" parent="1" source="7sYmuncNVX-oGqdXBu7q-1" target="7sYmuncNVX-oGqdXBu7q-18" edge="1">
          <mxGeometry width="160" relative="1" as="geometry">
            <mxPoint x="30" y="280" as="sourcePoint" />
            <mxPoint x="190" y="280" as="targetPoint" />
          </mxGeometry>
        </mxCell>
        <mxCell id="7sYmuncNVX-oGqdXBu7q-32" value="Return" style="endArrow=open;endSize=12;dashed=1;html=1;rounded=0;exitX=0.001;exitY=0.936;exitDx=0;exitDy=0;entryX=0.667;entryY=-0.014;entryDx=0;entryDy=0;entryPerimeter=0;exitPerimeter=0;" parent="1" source="7sYmuncNVX-oGqdXBu7q-1" target="7sYmuncNVX-oGqdXBu7q-27" edge="1">
          <mxGeometry width="160" relative="1" as="geometry">
            <mxPoint x="-60" y="410" as="sourcePoint" />
            <mxPoint x="98" y="327" as="targetPoint" />
          </mxGeometry>
        </mxCell>
        <mxCell id="7sYmuncNVX-oGqdXBu7q-31" value="Extends" style="endArrow=block;endSize=16;endFill=0;html=1;rounded=0;entryX=0.508;entryY=1.04;entryDx=0;entryDy=0;entryPerimeter=0;exitX=0.5;exitY=0;exitDx=0;exitDy=0;" parent="1" source="7sYmuncNVX-oGqdXBu7q-27" target="7sYmuncNVX-oGqdXBu7q-20" edge="1">
          <mxGeometry width="160" relative="1" as="geometry">
            <mxPoint x="30" y="480" as="sourcePoint" />
            <mxPoint x="190" y="480" as="targetPoint" />
          </mxGeometry>
        </mxCell>
        <mxCell id="7sYmuncNVX-oGqdXBu7q-39" value="1" style="endArrow=open;html=1;endSize=12;startArrow=diamondThin;startSize=14;startFill=1;edgeStyle=orthogonalEdgeStyle;align=left;verticalAlign=bottom;rounded=0;entryX=0.995;entryY=0.845;entryDx=0;entryDy=0;entryPerimeter=0;exitX=0;exitY=0.5;exitDx=0;exitDy=0;" parent="1" source="7sYmuncNVX-oGqdXBu7q-9" target="7sYmuncNVX-oGqdXBu7q-28" edge="1">
          <mxGeometry x="-1" y="3" relative="1" as="geometry">
            <mxPoint x="130" y="600" as="sourcePoint" />
            <mxPoint x="290" y="600" as="targetPoint" />
          </mxGeometry>
        </mxCell>
        <mxCell id="7sYmuncNVX-oGqdXBu7q-40" value="&lt;p style=&quot;margin:0px;margin-top:4px;text-align:center;&quot;&gt;&lt;i&gt;&amp;lt;&amp;lt;Interface&amp;gt;&amp;gt;&lt;/i&gt;&lt;br&gt;&lt;/p&gt;&lt;p style=&quot;margin:0px;margin-top:4px;text-align:center;&quot;&gt;&lt;i&gt;&lt;b&gt;IImage&lt;/b&gt;&lt;/i&gt;&lt;/p&gt;&lt;hr size=&quot;1&quot;&gt;&lt;p style=&quot;margin:0px;margin-left:4px;&quot;&gt;+ GetPath() : std::string&lt;br&gt;+ GetWidth(): int&lt;/p&gt;&lt;p style=&quot;margin:0px;margin-left:4px;&quot;&gt;+ GetHeight() : int&lt;/p&gt;&lt;p style=&quot;margin:0px;margin-left:4px;&quot;&gt;+&amp;nbsp;Resize(int width, int height)&lt;/p&gt;" style="verticalAlign=top;align=left;overflow=fill;fontSize=12;fontFamily=Helvetica;html=1;whiteSpace=wrap;" parent="1" vertex="1">
          <mxGeometry x="-670" y="192" width="190" height="124" as="geometry" />
        </mxCell>
        <mxCell id="7sYmuncNVX-oGqdXBu7q-41" value="" style="endArrow=diamondThin;endFill=0;endSize=24;html=1;rounded=0;entryX=0;entryY=0.5;entryDx=0;entryDy=0;exitX=1.016;exitY=0.603;exitDx=0;exitDy=0;exitPerimeter=0;" parent="1" source="7sYmuncNVX-oGqdXBu7q-40" target="7sYmuncNVX-oGqdXBu7q-19" edge="1">
          <mxGeometry width="160" relative="1" as="geometry">
            <mxPoint x="-420" y="410" as="sourcePoint" />
            <mxPoint x="-260" y="410" as="targetPoint" />
          </mxGeometry>
        </mxCell>
        <mxCell id="7sYmuncNVX-oGqdXBu7q-43" value="CImage" style="swimlane;fontStyle=0;childLayout=stackLayout;horizontal=1;startSize=26;fillColor=none;horizontalStack=0;resizeParent=1;resizeParentMax=0;resizeLast=0;collapsible=1;marginBottom=0;whiteSpace=wrap;html=1;" parent="1" vertex="1">
          <mxGeometry x="-1050" y="202" width="200" height="208" as="geometry" />
        </mxCell>
        <mxCell id="7sYmuncNVX-oGqdXBu7q-44" value="+ GetPath() : std::string" style="text;strokeColor=none;fillColor=none;align=left;verticalAlign=top;spacingLeft=4;spacingRight=4;overflow=hidden;rotatable=0;points=[[0,0.5],[1,0.5]];portConstraint=eastwest;whiteSpace=wrap;html=1;" parent="7sYmuncNVX-oGqdXBu7q-43" vertex="1">
          <mxGeometry y="26" width="200" height="26" as="geometry" />
        </mxCell>
        <mxCell id="7sYmuncNVX-oGqdXBu7q-45" value="&lt;p style=&quot;border-color: var(--border-color); margin: 0px 0px 0px 4px;&quot;&gt;+ GetWidth(): int&lt;/p&gt;&lt;div&gt;&lt;br&gt;&lt;/div&gt;" style="text;strokeColor=none;fillColor=none;align=left;verticalAlign=top;spacingLeft=4;spacingRight=4;overflow=hidden;rotatable=0;points=[[0,0.5],[1,0.5]];portConstraint=eastwest;whiteSpace=wrap;html=1;" parent="7sYmuncNVX-oGqdXBu7q-43" vertex="1">
          <mxGeometry y="52" width="200" height="26" as="geometry" />
        </mxCell>
        <mxCell id="7sYmuncNVX-oGqdXBu7q-46" value="&lt;p style=&quot;border-color: var(--border-color); margin: 0px 0px 0px 4px;&quot;&gt;+ GetHeight() : int&lt;/p&gt;&lt;div&gt;&lt;br&gt;&lt;/div&gt;" style="text;strokeColor=none;fillColor=none;align=left;verticalAlign=top;spacingLeft=4;spacingRight=4;overflow=hidden;rotatable=0;points=[[0,0.5],[1,0.5]];portConstraint=eastwest;whiteSpace=wrap;html=1;" parent="7sYmuncNVX-oGqdXBu7q-43" vertex="1">
          <mxGeometry y="78" width="200" height="26" as="geometry" />
        </mxCell>
        <mxCell id="7sYmuncNVX-oGqdXBu7q-47" value="&lt;p style=&quot;border-color: var(--border-color); margin: 0px 0px 0px 4px;&quot;&gt;+&amp;nbsp;Resize(int width, int height)&lt;br&gt;&lt;/p&gt;" style="text;strokeColor=none;fillColor=none;align=left;verticalAlign=top;spacingLeft=4;spacingRight=4;overflow=hidden;rotatable=0;points=[[0,0.5],[1,0.5]];portConstraint=eastwest;whiteSpace=wrap;html=1;" parent="7sYmuncNVX-oGqdXBu7q-43" vertex="1">
          <mxGeometry y="104" width="200" height="26" as="geometry" />
        </mxCell>
        <mxCell id="7sYmuncNVX-oGqdXBu7q-49" value="&lt;p style=&quot;border-color: var(--border-color); margin: 0px 0px 0px 4px;&quot;&gt;- m_path : std::string&lt;/p&gt;" style="text;strokeColor=none;fillColor=none;align=left;verticalAlign=top;spacingLeft=4;spacingRight=4;overflow=hidden;rotatable=0;points=[[0,0.5],[1,0.5]];portConstraint=eastwest;whiteSpace=wrap;html=1;" parent="7sYmuncNVX-oGqdXBu7q-43" vertex="1">
          <mxGeometry y="130" width="200" height="26" as="geometry" />
        </mxCell>
        <mxCell id="7sYmuncNVX-oGqdXBu7q-50" value="&lt;p style=&quot;border-color: var(--border-color); margin: 0px 0px 0px 4px;&quot;&gt;- width : int&lt;/p&gt;" style="text;strokeColor=none;fillColor=none;align=left;verticalAlign=top;spacingLeft=4;spacingRight=4;overflow=hidden;rotatable=0;points=[[0,0.5],[1,0.5]];portConstraint=eastwest;whiteSpace=wrap;html=1;" parent="7sYmuncNVX-oGqdXBu7q-43" vertex="1">
          <mxGeometry y="156" width="200" height="26" as="geometry" />
        </mxCell>
        <mxCell id="7sYmuncNVX-oGqdXBu7q-51" value="&lt;p style=&quot;border-color: var(--border-color); margin: 0px 0px 0px 4px;&quot;&gt;- height: int&lt;/p&gt;" style="text;strokeColor=none;fillColor=none;align=left;verticalAlign=top;spacingLeft=4;spacingRight=4;overflow=hidden;rotatable=0;points=[[0,0.5],[1,0.5]];portConstraint=eastwest;whiteSpace=wrap;html=1;" parent="7sYmuncNVX-oGqdXBu7q-43" vertex="1">
          <mxGeometry y="182" width="200" height="26" as="geometry" />
        </mxCell>
        <mxCell id="7sYmuncNVX-oGqdXBu7q-53" value="" style="endArrow=block;dashed=1;endFill=0;endSize=12;html=1;rounded=0;exitX=1;exitY=0.5;exitDx=0;exitDy=0;entryX=-0.006;entryY=0.668;entryDx=0;entryDy=0;entryPerimeter=0;" parent="1" source="7sYmuncNVX-oGqdXBu7q-46" target="7sYmuncNVX-oGqdXBu7q-40" edge="1">
          <mxGeometry width="160" relative="1" as="geometry">
            <mxPoint x="-720" y="340" as="sourcePoint" />
            <mxPoint x="-560" y="340" as="targetPoint" />
          </mxGeometry>
        </mxCell>
        <mxCell id="7sYmuncNVX-oGqdXBu7q-83" value="" style="endArrow=block;dashed=1;endFill=0;endSize=12;html=1;rounded=0;exitX=0.558;exitY=-0.006;exitDx=0;exitDy=0;entryX=0.75;entryY=1;entryDx=0;entryDy=0;exitPerimeter=0;" parent="1" source="7sYmuncNVX-oGqdXBu7q-74" target="7sYmuncNVX-oGqdXBu7q-40" edge="1">
          <mxGeometry width="160" relative="1" as="geometry">
            <mxPoint x="-840" y="303" as="sourcePoint" />
            <mxPoint x="-661" y="285" as="targetPoint" />
          </mxGeometry>
        </mxCell>
        <mxCell id="7sYmuncNVX-oGqdXBu7q-55" value="&lt;p style=&quot;margin:0px;margin-top:4px;text-align:center;&quot;&gt;&lt;i&gt;&amp;lt;&amp;lt;Interface&amp;gt;&amp;gt;&lt;/i&gt;&lt;br&gt;&lt;b&gt;IParagraph&lt;/b&gt;&lt;/p&gt;&lt;hr size=&quot;1&quot;&gt;&lt;p style=&quot;margin:0px;margin-left:4px;&quot;&gt;+ GetText: std::string&lt;br&gt;+ SetText(const std::string&amp;amp; text)&lt;/p&gt;" style="verticalAlign=top;align=left;overflow=fill;fontSize=12;fontFamily=Helvetica;html=1;whiteSpace=wrap;" parent="1" vertex="1">
          <mxGeometry x="-690" y="415" width="190" height="100" as="geometry" />
        </mxCell>
        <mxCell id="7sYmuncNVX-oGqdXBu7q-56" value="" style="endArrow=diamondThin;endFill=0;endSize=24;html=1;rounded=0;entryX=0;entryY=0.5;entryDx=0;entryDy=0;exitX=1;exitY=0;exitDx=0;exitDy=0;" parent="1" source="7sYmuncNVX-oGqdXBu7q-55" target="7sYmuncNVX-oGqdXBu7q-20" edge="1">
          <mxGeometry width="160" relative="1" as="geometry">
            <mxPoint x="-310" y="310" as="sourcePoint" />
            <mxPoint x="-150" y="310" as="targetPoint" />
          </mxGeometry>
        </mxCell>
        <mxCell id="7sYmuncNVX-oGqdXBu7q-57" value="Return" style="endArrow=open;endSize=12;dashed=1;html=1;rounded=0;entryX=0.544;entryY=0.023;entryDx=0;entryDy=0;entryPerimeter=0;exitX=0;exitY=0.167;exitDx=0;exitDy=0;exitPerimeter=0;" parent="1" source="7sYmuncNVX-oGqdXBu7q-1" target="7sYmuncNVX-oGqdXBu7q-40" edge="1">
          <mxGeometry x="0.071" y="-3" width="160" relative="1" as="geometry">
            <mxPoint x="-510" y="165.6923144584937" as="sourcePoint" />
            <mxPoint x="86.2199999999998" y="-19.99999999999997" as="targetPoint" />
            <Array as="points">
              <mxPoint x="-230" y="50" />
            </Array>
            <mxPoint as="offset" />
          </mxGeometry>
        </mxCell>
        <mxCell id="7sYmuncNVX-oGqdXBu7q-58" value="Return" style="endArrow=open;endSize=12;dashed=1;html=1;rounded=0;entryX=1;entryY=0.25;entryDx=0;entryDy=0;exitX=-0.002;exitY=0.387;exitDx=0;exitDy=0;exitPerimeter=0;" parent="1" source="7sYmuncNVX-oGqdXBu7q-1" target="7sYmuncNVX-oGqdXBu7q-40" edge="1">
          <mxGeometry x="0.071" y="-3" width="160" relative="1" as="geometry">
            <mxPoint x="-498" y="204" as="sourcePoint" />
            <mxPoint x="126" y="63" as="targetPoint" />
            <Array as="points">
              <mxPoint x="-220" y="60" />
            </Array>
            <mxPoint as="offset" />
          </mxGeometry>
        </mxCell>
        <mxCell id="7sYmuncNVX-oGqdXBu7q-59" value="CParagraph" style="swimlane;fontStyle=0;childLayout=stackLayout;horizontal=1;startSize=26;fillColor=none;horizontalStack=0;resizeParent=1;resizeParentMax=0;resizeLast=0;collapsible=1;marginBottom=0;whiteSpace=wrap;html=1;" parent="1" vertex="1">
          <mxGeometry x="-1010" y="515" width="190" height="104" as="geometry" />
        </mxCell>
        <mxCell id="7sYmuncNVX-oGqdXBu7q-60" value="+ GetText: std::string" style="text;strokeColor=none;fillColor=none;align=left;verticalAlign=top;spacingLeft=4;spacingRight=4;overflow=hidden;rotatable=0;points=[[0,0.5],[1,0.5]];portConstraint=eastwest;whiteSpace=wrap;html=1;" parent="7sYmuncNVX-oGqdXBu7q-59" vertex="1">
          <mxGeometry y="26" width="190" height="26" as="geometry" />
        </mxCell>
        <mxCell id="7sYmuncNVX-oGqdXBu7q-61" value="+ SetText(const std::string&amp;amp; text)" style="text;strokeColor=none;fillColor=none;align=left;verticalAlign=top;spacingLeft=4;spacingRight=4;overflow=hidden;rotatable=0;points=[[0,0.5],[1,0.5]];portConstraint=eastwest;whiteSpace=wrap;html=1;" parent="7sYmuncNVX-oGqdXBu7q-59" vertex="1">
          <mxGeometry y="52" width="190" height="26" as="geometry" />
        </mxCell>
        <mxCell id="7sYmuncNVX-oGqdXBu7q-62" value="- m_text : std::string" style="text;strokeColor=none;fillColor=none;align=left;verticalAlign=top;spacingLeft=4;spacingRight=4;overflow=hidden;rotatable=0;points=[[0,0.5],[1,0.5]];portConstraint=eastwest;whiteSpace=wrap;html=1;" parent="7sYmuncNVX-oGqdXBu7q-59" vertex="1">
          <mxGeometry y="78" width="190" height="26" as="geometry" />
        </mxCell>
        <mxCell id="7sYmuncNVX-oGqdXBu7q-63" value="" style="endArrow=block;dashed=1;endFill=0;endSize=12;html=1;rounded=0;exitX=0.75;exitY=0;exitDx=0;exitDy=0;entryX=0;entryY=0.5;entryDx=0;entryDy=0;" parent="1" source="7sYmuncNVX-oGqdXBu7q-59" target="7sYmuncNVX-oGqdXBu7q-55" edge="1">
          <mxGeometry width="160" relative="1" as="geometry">
            <mxPoint x="-640" y="500" as="sourcePoint" />
            <mxPoint x="-480" y="500" as="targetPoint" />
          </mxGeometry>
        </mxCell>
        <mxCell id="7sYmuncNVX-oGqdXBu7q-91" value="" style="endArrow=block;dashed=1;endFill=0;endSize=12;html=1;rounded=0;exitX=0.25;exitY=0;exitDx=0;exitDy=0;" parent="1" source="7sYmuncNVX-oGqdXBu7q-84" target="7sYmuncNVX-oGqdXBu7q-55" edge="1">
          <mxGeometry width="160" relative="1" as="geometry">
            <mxPoint x="-857" y="525" as="sourcePoint" />
            <mxPoint x="-680" y="475" as="targetPoint" />
          </mxGeometry>
        </mxCell>
        <mxCell id="7sYmuncNVX-oGqdXBu7q-64" value="CHistory" style="swimlane;fontStyle=0;childLayout=stackLayout;horizontal=1;startSize=26;fillColor=none;horizontalStack=0;resizeParent=1;resizeParentMax=0;resizeLast=0;collapsible=1;marginBottom=0;whiteSpace=wrap;html=1;" parent="1" vertex="1">
          <mxGeometry x="-160" y="745" width="260" height="310" as="geometry" />
        </mxCell>
        <mxCell id="7sYmuncNVX-oGqdXBu7q-65" value="+&amp;nbsp;CanUndo() : bool" style="text;strokeColor=none;fillColor=none;align=left;verticalAlign=top;spacingLeft=4;spacingRight=4;overflow=hidden;rotatable=0;points=[[0,0.5],[1,0.5]];portConstraint=eastwest;whiteSpace=wrap;html=1;" parent="7sYmuncNVX-oGqdXBu7q-64" vertex="1">
          <mxGeometry y="26" width="260" height="26" as="geometry" />
        </mxCell>
        <mxCell id="7sYmuncNVX-oGqdXBu7q-66" value="+ CanRedo() : bool" style="text;strokeColor=none;fillColor=none;align=left;verticalAlign=top;spacingLeft=4;spacingRight=4;overflow=hidden;rotatable=0;points=[[0,0.5],[1,0.5]];portConstraint=eastwest;whiteSpace=wrap;html=1;" parent="7sYmuncNVX-oGqdXBu7q-64" vertex="1">
          <mxGeometry y="52" width="260" height="26" as="geometry" />
        </mxCell>
        <mxCell id="7sYmuncNVX-oGqdXBu7q-67" value="+&amp;nbsp;Undo()" style="text;strokeColor=none;fillColor=none;align=left;verticalAlign=top;spacingLeft=4;spacingRight=4;overflow=hidden;rotatable=0;points=[[0,0.5],[1,0.5]];portConstraint=eastwest;whiteSpace=wrap;html=1;" parent="7sYmuncNVX-oGqdXBu7q-64" vertex="1">
          <mxGeometry y="78" width="260" height="26" as="geometry" />
        </mxCell>
        <mxCell id="7sYmuncNVX-oGqdXBu7q-68" value="+ Redo()" style="text;strokeColor=none;fillColor=none;align=left;verticalAlign=top;spacingLeft=4;spacingRight=4;overflow=hidden;rotatable=0;points=[[0,0.5],[1,0.5]];portConstraint=eastwest;whiteSpace=wrap;html=1;" parent="7sYmuncNVX-oGqdXBu7q-64" vertex="1">
          <mxGeometry y="104" width="260" height="26" as="geometry" />
        </mxCell>
        <mxCell id="7sYmuncNVX-oGqdXBu7q-69" value="+AddAndExecuteCommand(ICommandPtr&amp;amp;&amp;amp; command)" style="text;strokeColor=none;fillColor=none;align=left;verticalAlign=top;spacingLeft=4;spacingRight=4;overflow=hidden;rotatable=0;points=[[0,0.5],[1,0.5]];portConstraint=eastwest;whiteSpace=wrap;html=1;" parent="7sYmuncNVX-oGqdXBu7q-64" vertex="1">
          <mxGeometry y="130" width="260" height="60" as="geometry" />
        </mxCell>
        <mxCell id="7sYmuncNVX-oGqdXBu7q-70" value="+AddAndExecuteCommand(ICommandPtr&amp;amp;&amp;amp; command)" style="text;strokeColor=none;fillColor=none;align=left;verticalAlign=top;spacingLeft=4;spacingRight=4;overflow=hidden;rotatable=0;points=[[0,0.5],[1,0.5]];portConstraint=eastwest;whiteSpace=wrap;html=1;" parent="7sYmuncNVX-oGqdXBu7q-64" vertex="1">
          <mxGeometry y="190" width="260" height="60" as="geometry" />
        </mxCell>
        <mxCell id="7sYmuncNVX-oGqdXBu7q-71" value="-&amp;nbsp; m_commands : std::vector&amp;lt;ICommandPtr&amp;gt;" style="text;strokeColor=none;fillColor=none;align=left;verticalAlign=top;spacingLeft=4;spacingRight=4;overflow=hidden;rotatable=0;points=[[0,0.5],[1,0.5]];portConstraint=eastwest;whiteSpace=wrap;html=1;" parent="7sYmuncNVX-oGqdXBu7q-64" vertex="1">
          <mxGeometry y="250" width="260" height="30" as="geometry" />
        </mxCell>
        <mxCell id="7sYmuncNVX-oGqdXBu7q-72" value="- m_currentCommandIdx: size_t" style="text;strokeColor=none;fillColor=none;align=left;verticalAlign=top;spacingLeft=4;spacingRight=4;overflow=hidden;rotatable=0;points=[[0,0.5],[1,0.5]];portConstraint=eastwest;whiteSpace=wrap;html=1;" parent="7sYmuncNVX-oGqdXBu7q-64" vertex="1">
          <mxGeometry y="280" width="260" height="30" as="geometry" />
        </mxCell>
        <mxCell id="7sYmuncNVX-oGqdXBu7q-73" value="" style="endArrow=diamondThin;endFill=1;endSize=24;html=1;rounded=0;entryX=0;entryY=0.5;entryDx=0;entryDy=0;" parent="1" source="7sYmuncNVX-oGqdXBu7q-69" target="7sYmuncNVX-oGqdXBu7q-34" edge="1">
          <mxGeometry width="160" relative="1" as="geometry">
            <mxPoint x="70" y="940" as="sourcePoint" />
            <mxPoint x="230" y="940" as="targetPoint" />
          </mxGeometry>
        </mxCell>
        <mxCell id="7sYmuncNVX-oGqdXBu7q-74" value="CImageAndHistory" style="swimlane;fontStyle=0;childLayout=stackLayout;horizontal=1;startSize=26;fillColor=none;horizontalStack=0;resizeParent=1;resizeParentMax=0;resizeLast=0;collapsible=1;marginBottom=0;whiteSpace=wrap;html=1;" parent="1" vertex="1">
          <mxGeometry x="-570" y="563" width="190" height="200" as="geometry" />
        </mxCell>
        <mxCell id="7sYmuncNVX-oGqdXBu7q-75" value="+ GetPath() : std::string" style="text;strokeColor=none;fillColor=none;align=left;verticalAlign=top;spacingLeft=4;spacingRight=4;overflow=hidden;rotatable=0;points=[[0,0.5],[1,0.5]];portConstraint=eastwest;whiteSpace=wrap;html=1;" parent="7sYmuncNVX-oGqdXBu7q-74" vertex="1">
          <mxGeometry y="26" width="190" height="26" as="geometry" />
        </mxCell>
        <mxCell id="7sYmuncNVX-oGqdXBu7q-76" value="&lt;p style=&quot;border-color: var(--border-color); margin: 0px 0px 0px 4px;&quot;&gt;+ GetWidth(): int&lt;/p&gt;&lt;div style=&quot;border-color: var(--border-color);&quot;&gt;&lt;br style=&quot;border-color: var(--border-color);&quot;&gt;&lt;/div&gt;" style="text;strokeColor=none;fillColor=none;align=left;verticalAlign=top;spacingLeft=4;spacingRight=4;overflow=hidden;rotatable=0;points=[[0,0.5],[1,0.5]];portConstraint=eastwest;whiteSpace=wrap;html=1;" parent="7sYmuncNVX-oGqdXBu7q-74" vertex="1">
          <mxGeometry y="52" width="190" height="26" as="geometry" />
        </mxCell>
        <mxCell id="7sYmuncNVX-oGqdXBu7q-77" value="&lt;p style=&quot;border-color: var(--border-color); margin: 0px 0px 0px 4px;&quot;&gt;+ GetHeight() : int&lt;/p&gt;&lt;div style=&quot;border-color: var(--border-color);&quot;&gt;&lt;br style=&quot;border-color: var(--border-color);&quot;&gt;&lt;/div&gt;" style="text;strokeColor=none;fillColor=none;align=left;verticalAlign=top;spacingLeft=4;spacingRight=4;overflow=hidden;rotatable=0;points=[[0,0.5],[1,0.5]];portConstraint=eastwest;whiteSpace=wrap;html=1;" parent="7sYmuncNVX-oGqdXBu7q-74" vertex="1">
          <mxGeometry y="78" width="190" height="26" as="geometry" />
        </mxCell>
        <mxCell id="7sYmuncNVX-oGqdXBu7q-78" value="&lt;p style=&quot;border-color: var(--border-color); margin: 0px 0px 0px 4px;&quot;&gt;+&amp;nbsp;Resize(int width, int height)&lt;br&gt;&lt;/p&gt;" style="text;strokeColor=none;fillColor=none;align=left;verticalAlign=top;spacingLeft=4;spacingRight=4;overflow=hidden;rotatable=0;points=[[0,0.5],[1,0.5]];portConstraint=eastwest;whiteSpace=wrap;html=1;" parent="7sYmuncNVX-oGqdXBu7q-74" vertex="1">
          <mxGeometry y="104" width="190" height="26" as="geometry" />
        </mxCell>
        <mxCell id="7sYmuncNVX-oGqdXBu7q-80" value="&lt;p style=&quot;border-color: var(--border-color); margin: 0px 0px 0px 4px;&quot;&gt;- m_img :&amp;nbsp;&lt;br&gt;&lt;/p&gt;std::shared_ptr&amp;lt;IImage&amp;gt;" style="text;strokeColor=none;fillColor=none;align=left;verticalAlign=top;spacingLeft=4;spacingRight=4;overflow=hidden;rotatable=0;points=[[0,0.5],[1,0.5]];portConstraint=eastwest;whiteSpace=wrap;html=1;" parent="7sYmuncNVX-oGqdXBu7q-74" vertex="1">
          <mxGeometry y="130" width="190" height="40" as="geometry" />
        </mxCell>
        <mxCell id="7sYmuncNVX-oGqdXBu7q-79" value="&lt;p style=&quot;border-color: var(--border-color); margin: 0px 0px 0px 4px;&quot;&gt;- m_history : CHistory&amp;amp;&lt;/p&gt;" style="text;strokeColor=none;fillColor=none;align=left;verticalAlign=top;spacingLeft=4;spacingRight=4;overflow=hidden;rotatable=0;points=[[0,0.5],[1,0.5]];portConstraint=eastwest;whiteSpace=wrap;html=1;" parent="7sYmuncNVX-oGqdXBu7q-74" vertex="1">
          <mxGeometry y="170" width="190" height="30" as="geometry" />
        </mxCell>
        <mxCell id="7sYmuncNVX-oGqdXBu7q-81" value="" style="endArrow=diamondThin;endFill=0;endSize=24;html=1;rounded=0;entryX=0.75;entryY=0;entryDx=0;entryDy=0;exitX=0.995;exitY=0.82;exitDx=0;exitDy=0;exitPerimeter=0;" parent="1" source="7sYmuncNVX-oGqdXBu7q-40" target="7sYmuncNVX-oGqdXBu7q-74" edge="1">
          <mxGeometry width="160" relative="1" as="geometry">
            <mxPoint x="-450" y="510" as="sourcePoint" />
            <mxPoint x="-290" y="510" as="targetPoint" />
          </mxGeometry>
        </mxCell>
        <mxCell id="7sYmuncNVX-oGqdXBu7q-82" value="" style="endArrow=diamondThin;endFill=0;endSize=24;html=1;rounded=0;entryX=1;entryY=0.5;entryDx=0;entryDy=0;exitX=-0.01;exitY=-0.008;exitDx=0;exitDy=0;exitPerimeter=0;" parent="1" source="7sYmuncNVX-oGqdXBu7q-70" target="7sYmuncNVX-oGqdXBu7q-86" edge="1">
          <mxGeometry width="160" relative="1" as="geometry">
            <mxPoint x="-340.00000000000045" y="933.9999999999998" as="sourcePoint" />
            <mxPoint x="-459.99999999999955" y="793" as="targetPoint" />
          </mxGeometry>
        </mxCell>
        <mxCell id="7sYmuncNVX-oGqdXBu7q-128" value="" style="endArrow=diamondThin;endFill=0;endSize=24;html=1;rounded=0;entryX=0.5;entryY=0;entryDx=0;entryDy=0;exitX=0.051;exitY=1.035;exitDx=0;exitDy=0;exitPerimeter=0;" parent="1" source="7sYmuncNVX-oGqdXBu7q-29" target="7sYmuncNVX-oGqdXBu7q-121" edge="1">
          <mxGeometry width="160" relative="1" as="geometry">
            <mxPoint x="-330" y="630" as="sourcePoint" />
            <mxPoint x="-560" y="901" as="targetPoint" />
          </mxGeometry>
        </mxCell>
        <mxCell id="7sYmuncNVX-oGqdXBu7q-136" value="" style="endArrow=diamondThin;endFill=0;endSize=24;html=1;rounded=0;entryX=0.365;entryY=-0.009;entryDx=0;entryDy=0;exitX=0.183;exitY=1.035;exitDx=0;exitDy=0;exitPerimeter=0;entryPerimeter=0;" parent="1" source="7sYmuncNVX-oGqdXBu7q-29" target="7sYmuncNVX-oGqdXBu7q-129" edge="1">
          <mxGeometry width="160" relative="1" as="geometry">
            <mxPoint x="-286" y="531" as="sourcePoint" />
            <mxPoint x="-475" y="1022" as="targetPoint" />
          </mxGeometry>
        </mxCell>
        <mxCell id="7sYmuncNVX-oGqdXBu7q-90" value="" style="endArrow=diamondThin;endFill=0;endSize=24;html=1;rounded=0;exitX=0.605;exitY=1.064;exitDx=0;exitDy=0;exitPerimeter=0;" parent="1" source="7sYmuncNVX-oGqdXBu7q-55" target="7sYmuncNVX-oGqdXBu7q-84" edge="1">
          <mxGeometry width="160" relative="1" as="geometry">
            <mxPoint x="-516.5" y="719" as="sourcePoint" />
            <mxPoint x="-823.5" y="690" as="targetPoint" />
          </mxGeometry>
        </mxCell>
        <mxCell id="7sYmuncNVX-oGqdXBu7q-89" value="" style="endArrow=diamondThin;endFill=0;endSize=24;html=1;rounded=0;entryX=1;entryY=0.5;entryDx=0;entryDy=0;exitX=0.25;exitY=0;exitDx=0;exitDy=0;" parent="1" source="7sYmuncNVX-oGqdXBu7q-64" target="7sYmuncNVX-oGqdXBu7q-78" edge="1">
          <mxGeometry width="160" relative="1" as="geometry">
            <mxPoint x="-330" y="944" as="sourcePoint" />
            <mxPoint x="-450" y="803" as="targetPoint" />
          </mxGeometry>
        </mxCell>
        <mxCell id="7sYmuncNVX-oGqdXBu7q-84" value="CParagraphAndHistory" style="swimlane;fontStyle=0;childLayout=stackLayout;horizontal=1;startSize=26;fillColor=none;horizontalStack=0;resizeParent=1;resizeParentMax=0;resizeLast=0;collapsible=1;marginBottom=0;whiteSpace=wrap;html=1;" parent="1" vertex="1">
          <mxGeometry x="-770" y="820" width="200" height="160" as="geometry" />
        </mxCell>
        <mxCell id="7sYmuncNVX-oGqdXBu7q-85" value="+ GetText: std::string" style="text;strokeColor=none;fillColor=none;align=left;verticalAlign=top;spacingLeft=4;spacingRight=4;overflow=hidden;rotatable=0;points=[[0,0.5],[1,0.5]];portConstraint=eastwest;whiteSpace=wrap;html=1;" parent="7sYmuncNVX-oGqdXBu7q-84" vertex="1">
          <mxGeometry y="26" width="200" height="26" as="geometry" />
        </mxCell>
        <mxCell id="7sYmuncNVX-oGqdXBu7q-86" value="+ SetText(const std::string&amp;amp; text)" style="text;strokeColor=none;fillColor=none;align=left;verticalAlign=top;spacingLeft=4;spacingRight=4;overflow=hidden;rotatable=0;points=[[0,0.5],[1,0.5]];portConstraint=eastwest;whiteSpace=wrap;html=1;" parent="7sYmuncNVX-oGqdXBu7q-84" vertex="1">
          <mxGeometry y="52" width="200" height="38" as="geometry" />
        </mxCell>
        <mxCell id="7sYmuncNVX-oGqdXBu7q-87" value="- m_history : CHistory&amp;amp;" style="text;strokeColor=none;fillColor=none;align=left;verticalAlign=top;spacingLeft=4;spacingRight=4;overflow=hidden;rotatable=0;points=[[0,0.5],[1,0.5]];portConstraint=eastwest;whiteSpace=wrap;html=1;" parent="7sYmuncNVX-oGqdXBu7q-84" vertex="1">
          <mxGeometry y="90" width="200" height="26" as="geometry" />
        </mxCell>
        <mxCell id="7sYmuncNVX-oGqdXBu7q-88" value="&lt;p style=&quot;border-color: var(--border-color); margin: 0px 0px 0px 4px;&quot;&gt;- m_paragraph:&lt;br style=&quot;border-color: var(--border-color);&quot;&gt;&lt;/p&gt;std::shared_ptr&amp;lt;&lt;b style=&quot;border-color: var(--border-color); text-align: center;&quot;&gt;IParagraph&lt;/b&gt;&amp;gt;" style="text;strokeColor=none;fillColor=none;align=left;verticalAlign=top;spacingLeft=4;spacingRight=4;overflow=hidden;rotatable=0;points=[[0,0.5],[1,0.5]];portConstraint=eastwest;whiteSpace=wrap;html=1;" parent="7sYmuncNVX-oGqdXBu7q-84" vertex="1">
          <mxGeometry y="116" width="200" height="44" as="geometry" />
        </mxCell>
        <mxCell id="7sYmuncNVX-oGqdXBu7q-92" value="&lt;p style=&quot;margin:0px;margin-top:4px;text-align:center;&quot;&gt;&lt;i&gt;&amp;lt;&amp;lt;Interface&amp;gt;&amp;gt;&lt;/i&gt;&lt;br&gt;&lt;b&gt;ICommand&lt;/b&gt;&lt;/p&gt;&lt;hr size=&quot;1&quot;&gt;&lt;p style=&quot;margin:0px;margin-left:4px;&quot;&gt;+ Execute()&lt;br&gt;+ UnExecute()&lt;/p&gt;" style="verticalAlign=top;align=left;overflow=fill;fontSize=12;fontFamily=Helvetica;html=1;whiteSpace=wrap;" parent="1" vertex="1">
          <mxGeometry x="-125" y="1349" width="190" height="90" as="geometry" />
        </mxCell>
        <mxCell id="7sYmuncNVX-oGqdXBu7q-93" value="" style="endArrow=diamondThin;endFill=0;endSize=24;html=1;rounded=0;entryX=0.685;entryY=0.969;entryDx=0;entryDy=0;entryPerimeter=0;exitX=0.418;exitY=0.03;exitDx=0;exitDy=0;exitPerimeter=0;" parent="1" source="7sYmuncNVX-oGqdXBu7q-92" target="7sYmuncNVX-oGqdXBu7q-72" edge="1">
          <mxGeometry width="160" relative="1" as="geometry">
            <mxPoint x="-120" y="1080" as="sourcePoint" />
            <mxPoint x="40" y="1080" as="targetPoint" />
          </mxGeometry>
        </mxCell>
        <mxCell id="7sYmuncNVX-oGqdXBu7q-94" value="AbstractCommand" style="swimlane;fontStyle=0;childLayout=stackLayout;horizontal=1;startSize=26;fillColor=none;horizontalStack=0;resizeParent=1;resizeParentMax=0;resizeLast=0;collapsible=1;marginBottom=0;whiteSpace=wrap;html=1;" parent="1" vertex="1">
          <mxGeometry x="-650" y="1283" width="140" height="156" as="geometry" />
        </mxCell>
        <mxCell id="7sYmuncNVX-oGqdXBu7q-95" value="+ Execute()" style="text;strokeColor=none;fillColor=none;align=left;verticalAlign=top;spacingLeft=4;spacingRight=4;overflow=hidden;rotatable=0;points=[[0,0.5],[1,0.5]];portConstraint=eastwest;whiteSpace=wrap;html=1;" parent="7sYmuncNVX-oGqdXBu7q-94" vertex="1">
          <mxGeometry y="26" width="140" height="26" as="geometry" />
        </mxCell>
        <mxCell id="7sYmuncNVX-oGqdXBu7q-96" value="+ UnExecute()" style="text;strokeColor=none;fillColor=none;align=left;verticalAlign=top;spacingLeft=4;spacingRight=4;overflow=hidden;rotatable=0;points=[[0,0.5],[1,0.5]];portConstraint=eastwest;whiteSpace=wrap;html=1;" parent="7sYmuncNVX-oGqdXBu7q-94" vertex="1">
          <mxGeometry y="52" width="140" height="26" as="geometry" />
        </mxCell>
        <mxCell id="7sYmuncNVX-oGqdXBu7q-97" value="# DoExecuted()" style="text;strokeColor=none;fillColor=none;align=left;verticalAlign=top;spacingLeft=4;spacingRight=4;overflow=hidden;rotatable=0;points=[[0,0.5],[1,0.5]];portConstraint=eastwest;whiteSpace=wrap;html=1;" parent="7sYmuncNVX-oGqdXBu7q-94" vertex="1">
          <mxGeometry y="78" width="140" height="26" as="geometry" />
        </mxCell>
        <mxCell id="7sYmuncNVX-oGqdXBu7q-98" value="#&amp;nbsp;DoUnExecute()" style="text;strokeColor=none;fillColor=none;align=left;verticalAlign=top;spacingLeft=4;spacingRight=4;overflow=hidden;rotatable=0;points=[[0,0.5],[1,0.5]];portConstraint=eastwest;whiteSpace=wrap;html=1;" parent="7sYmuncNVX-oGqdXBu7q-94" vertex="1">
          <mxGeometry y="104" width="140" height="26" as="geometry" />
        </mxCell>
        <mxCell id="7sYmuncNVX-oGqdXBu7q-99" value="-&amp;nbsp;m_executed: bool" style="text;strokeColor=none;fillColor=none;align=left;verticalAlign=top;spacingLeft=4;spacingRight=4;overflow=hidden;rotatable=0;points=[[0,0.5],[1,0.5]];portConstraint=eastwest;whiteSpace=wrap;html=1;" parent="7sYmuncNVX-oGqdXBu7q-94" vertex="1">
          <mxGeometry y="130" width="140" height="26" as="geometry" />
        </mxCell>
        <mxCell id="7sYmuncNVX-oGqdXBu7q-100" value="" style="endArrow=block;dashed=1;endFill=0;endSize=12;html=1;rounded=0;entryX=-0.004;entryY=0.65;entryDx=0;entryDy=0;exitX=1;exitY=0.5;exitDx=0;exitDy=0;entryPerimeter=0;" parent="1" source="7sYmuncNVX-oGqdXBu7q-99" target="7sYmuncNVX-oGqdXBu7q-92" edge="1">
          <mxGeometry width="160" relative="1" as="geometry">
            <mxPoint x="50" y="1080" as="sourcePoint" />
            <mxPoint x="210" y="1080" as="targetPoint" />
          </mxGeometry>
        </mxCell>
        <mxCell id="7sYmuncNVX-oGqdXBu7q-101" value="ChangeImageCommand" style="swimlane;fontStyle=0;childLayout=stackLayout;horizontal=1;startSize=26;fillColor=none;horizontalStack=0;resizeParent=1;resizeParentMax=0;resizeLast=0;collapsible=1;marginBottom=0;whiteSpace=wrap;html=1;" parent="1" vertex="1">
          <mxGeometry x="-940" y="1030" width="190" height="162" as="geometry" />
        </mxCell>
        <mxCell id="7sYmuncNVX-oGqdXBu7q-102" value="+ DoExecuted()" style="text;strokeColor=none;fillColor=none;align=left;verticalAlign=top;spacingLeft=4;spacingRight=4;overflow=hidden;rotatable=0;points=[[0,0.5],[1,0.5]];portConstraint=eastwest;whiteSpace=wrap;html=1;" parent="7sYmuncNVX-oGqdXBu7q-101" vertex="1">
          <mxGeometry y="26" width="190" height="26" as="geometry" />
        </mxCell>
        <mxCell id="7sYmuncNVX-oGqdXBu7q-103" value="+ DoUnExecute()" style="text;strokeColor=none;fillColor=none;align=left;verticalAlign=top;spacingLeft=4;spacingRight=4;overflow=hidden;rotatable=0;points=[[0,0.5],[1,0.5]];portConstraint=eastwest;whiteSpace=wrap;html=1;" parent="7sYmuncNVX-oGqdXBu7q-101" vertex="1">
          <mxGeometry y="52" width="190" height="26" as="geometry" />
        </mxCell>
        <mxCell id="7sYmuncNVX-oGqdXBu7q-104" value="&lt;p style=&quot;border-color: var(--border-color); margin: 0px 0px 0px 4px;&quot;&gt;- m_img :&amp;nbsp;&lt;br style=&quot;border-color: var(--border-color);&quot;&gt;&lt;/p&gt;std::shared_ptr&amp;lt;IImage&amp;gt;&amp;amp;" style="text;strokeColor=none;fillColor=none;align=left;verticalAlign=top;spacingLeft=4;spacingRight=4;overflow=hidden;rotatable=0;points=[[0,0.5],[1,0.5]];portConstraint=eastwest;whiteSpace=wrap;html=1;" parent="7sYmuncNVX-oGqdXBu7q-101" vertex="1">
          <mxGeometry y="78" width="190" height="42" as="geometry" />
        </mxCell>
        <mxCell id="7sYmuncNVX-oGqdXBu7q-105" value="&lt;p style=&quot;border-color: var(--border-color); margin: 0px 0px 0px 4px;&quot;&gt;- m_imgCopy :&amp;nbsp;&lt;br style=&quot;border-color: var(--border-color);&quot;&gt;&lt;/p&gt;std::shared_ptr&amp;lt;IImage&amp;gt;&lt;p style=&quot;border-color: var(--border-color); margin: 0px 0px 0px 4px;&quot;&gt;&lt;/p&gt;" style="text;strokeColor=none;fillColor=none;align=left;verticalAlign=top;spacingLeft=4;spacingRight=4;overflow=hidden;rotatable=0;points=[[0,0.5],[1,0.5]];portConstraint=eastwest;whiteSpace=wrap;html=1;" parent="7sYmuncNVX-oGqdXBu7q-101" vertex="1">
          <mxGeometry y="120" width="190" height="42" as="geometry" />
        </mxCell>
        <mxCell id="7sYmuncNVX-oGqdXBu7q-106" value="Extends" style="endArrow=block;endSize=16;endFill=0;html=1;rounded=0;entryX=0;entryY=0.5;entryDx=0;entryDy=0;exitX=1;exitY=0.5;exitDx=0;exitDy=0;" parent="1" source="7sYmuncNVX-oGqdXBu7q-104" target="7sYmuncNVX-oGqdXBu7q-95" edge="1">
          <mxGeometry width="160" relative="1" as="geometry">
            <mxPoint x="-900" y="900" as="sourcePoint" />
            <mxPoint x="-740" y="900" as="targetPoint" />
          </mxGeometry>
        </mxCell>
        <mxCell id="7sYmuncNVX-oGqdXBu7q-135" value="Extends" style="endArrow=block;endSize=16;endFill=0;html=1;rounded=0;entryX=1.019;entryY=-0.002;entryDx=0;entryDy=0;exitX=0;exitY=0.5;exitDx=0;exitDy=0;entryPerimeter=0;" parent="1" source="7sYmuncNVX-oGqdXBu7q-133" target="7sYmuncNVX-oGqdXBu7q-97" edge="1">
          <mxGeometry width="160" relative="1" as="geometry">
            <mxPoint x="-500" y="1180" as="sourcePoint" />
            <mxPoint x="-400" y="1373" as="targetPoint" />
          </mxGeometry>
        </mxCell>
        <mxCell id="7sYmuncNVX-oGqdXBu7q-127" value="Extends" style="endArrow=block;endSize=16;endFill=0;html=1;rounded=0;entryX=0.5;entryY=0;entryDx=0;entryDy=0;exitX=-0.01;exitY=0.762;exitDx=0;exitDy=0;exitPerimeter=0;" parent="1" source="7sYmuncNVX-oGqdXBu7q-124" target="7sYmuncNVX-oGqdXBu7q-94" edge="1">
          <mxGeometry width="160" relative="1" as="geometry">
            <mxPoint x="-670" y="1060" as="sourcePoint" />
            <mxPoint x="-570" y="1253" as="targetPoint" />
            <Array as="points">
              <mxPoint x="-630" y="1200" />
            </Array>
          </mxGeometry>
        </mxCell>
        <mxCell id="7sYmuncNVX-oGqdXBu7q-113" value="Extends" style="endArrow=block;endSize=16;endFill=0;html=1;rounded=0;entryX=-0.024;entryY=0.1;entryDx=0;entryDy=0;exitX=1;exitY=0.5;exitDx=0;exitDy=0;entryPerimeter=0;" parent="1" source="7sYmuncNVX-oGqdXBu7q-110" target="7sYmuncNVX-oGqdXBu7q-98" edge="1">
          <mxGeometry width="160" relative="1" as="geometry">
            <mxPoint x="-760" y="1280" as="sourcePoint" />
            <mxPoint x="-675" y="1370" as="targetPoint" />
          </mxGeometry>
        </mxCell>
        <mxCell id="7sYmuncNVX-oGqdXBu7q-120" value="Extends" style="endArrow=block;endSize=16;endFill=0;html=1;rounded=0;entryX=0.36;entryY=0.966;entryDx=0;entryDy=0;exitX=0.38;exitY=-0.042;exitDx=0;exitDy=0;entryPerimeter=0;exitPerimeter=0;" parent="1" source="7sYmuncNVX-oGqdXBu7q-115" target="7sYmuncNVX-oGqdXBu7q-99" edge="1">
          <mxGeometry width="160" relative="1" as="geometry">
            <mxPoint x="-810" y="1345" as="sourcePoint" />
            <mxPoint x="-643" y="1400" as="targetPoint" />
          </mxGeometry>
        </mxCell>
        <mxCell id="7sYmuncNVX-oGqdXBu7q-107" value="" style="endArrow=diamondThin;endFill=0;endSize=24;html=1;rounded=0;entryX=0.5;entryY=0;entryDx=0;entryDy=0;exitX=-0.021;exitY=0.903;exitDx=0;exitDy=0;exitPerimeter=0;" parent="1" source="7sYmuncNVX-oGqdXBu7q-40" target="7sYmuncNVX-oGqdXBu7q-101" edge="1">
          <mxGeometry width="160" relative="1" as="geometry">
            <mxPoint x="-730" y="410" as="sourcePoint" />
            <mxPoint x="-800" y="1030" as="targetPoint" />
          </mxGeometry>
        </mxCell>
        <mxCell id="7sYmuncNVX-oGqdXBu7q-114" value="" style="endArrow=diamondThin;endFill=0;endSize=24;html=1;rounded=0;entryX=0.5;entryY=0;entryDx=0;entryDy=0;exitX=0.322;exitY=1.036;exitDx=0;exitDy=0;exitPerimeter=0;" parent="1" source="7sYmuncNVX-oGqdXBu7q-55" edge="1">
          <mxGeometry width="160" relative="1" as="geometry">
            <mxPoint x="-759.5" y="550" as="sourcePoint" />
            <mxPoint x="-930.5" y="1276" as="targetPoint" />
            <Array as="points">
              <mxPoint x="-980" y="910" />
              <mxPoint x="-1050" y="1110" />
            </Array>
          </mxGeometry>
        </mxCell>
        <mxCell id="7sYmuncNVX-oGqdXBu7q-108" value="ChangeParagraphCommand" style="swimlane;fontStyle=0;childLayout=stackLayout;horizontal=1;startSize=26;fillColor=none;horizontalStack=0;resizeParent=1;resizeParentMax=0;resizeLast=0;collapsible=1;marginBottom=0;whiteSpace=wrap;html=1;" parent="1" vertex="1">
          <mxGeometry x="-1030" y="1270" width="210" height="182" as="geometry" />
        </mxCell>
        <mxCell id="7sYmuncNVX-oGqdXBu7q-109" value="+ DoExecuted()" style="text;strokeColor=none;fillColor=none;align=left;verticalAlign=top;spacingLeft=4;spacingRight=4;overflow=hidden;rotatable=0;points=[[0,0.5],[1,0.5]];portConstraint=eastwest;whiteSpace=wrap;html=1;" parent="7sYmuncNVX-oGqdXBu7q-108" vertex="1">
          <mxGeometry y="26" width="210" height="26" as="geometry" />
        </mxCell>
        <mxCell id="7sYmuncNVX-oGqdXBu7q-110" value="+ DoUnExecute()" style="text;strokeColor=none;fillColor=none;align=left;verticalAlign=top;spacingLeft=4;spacingRight=4;overflow=hidden;rotatable=0;points=[[0,0.5],[1,0.5]];portConstraint=eastwest;whiteSpace=wrap;html=1;" parent="7sYmuncNVX-oGqdXBu7q-108" vertex="1">
          <mxGeometry y="52" width="210" height="26" as="geometry" />
        </mxCell>
        <mxCell id="7sYmuncNVX-oGqdXBu7q-111" value="&lt;p style=&quot;border-color: var(--border-color); margin: 0px 0px 0px 4px;&quot;&gt;- m_paragraph:&lt;br style=&quot;border-color: var(--border-color);&quot;&gt;&lt;/p&gt;std::shared_ptr&amp;lt;&lt;b style=&quot;border-color: var(--border-color); text-align: center;&quot;&gt;IParagraph&lt;/b&gt;&amp;gt;&amp;amp;&lt;p style=&quot;border-color: var(--border-color); margin: 0px 0px 0px 4px;&quot;&gt;&lt;/p&gt;" style="text;strokeColor=none;fillColor=none;align=left;verticalAlign=top;spacingLeft=4;spacingRight=4;overflow=hidden;rotatable=0;points=[[0,0.5],[1,0.5]];portConstraint=eastwest;whiteSpace=wrap;html=1;" parent="7sYmuncNVX-oGqdXBu7q-108" vertex="1">
          <mxGeometry y="78" width="210" height="52" as="geometry" />
        </mxCell>
        <mxCell id="7sYmuncNVX-oGqdXBu7q-112" value="&lt;p style=&quot;border-color: var(--border-color); margin: 0px 0px 0px 4px;&quot;&gt;- m_paragraphCopy:&lt;br style=&quot;border-color: var(--border-color);&quot;&gt;&lt;/p&gt;std::shared_ptr&amp;lt;&lt;b style=&quot;border-color: var(--border-color); text-align: center;&quot;&gt;IParagraph&lt;/b&gt;&amp;gt;&lt;p style=&quot;border-color: var(--border-color); margin: 0px 0px 0px 4px;&quot;&gt;&lt;/p&gt;" style="text;strokeColor=none;fillColor=none;align=left;verticalAlign=top;spacingLeft=4;spacingRight=4;overflow=hidden;rotatable=0;points=[[0,0.5],[1,0.5]];portConstraint=eastwest;whiteSpace=wrap;html=1;" parent="7sYmuncNVX-oGqdXBu7q-108" vertex="1">
          <mxGeometry y="130" width="210" height="52" as="geometry" />
        </mxCell>
        <mxCell id="7sYmuncNVX-oGqdXBu7q-121" value="InsertItemCommand" style="swimlane;fontStyle=0;childLayout=stackLayout;horizontal=1;startSize=26;fillColor=none;horizontalStack=0;resizeParent=1;resizeParentMax=0;resizeLast=0;collapsible=1;marginBottom=0;whiteSpace=wrap;html=1;" parent="1" vertex="1">
          <mxGeometry x="-590" y="1012" width="210" height="180" as="geometry" />
        </mxCell>
        <mxCell id="7sYmuncNVX-oGqdXBu7q-122" value="+ DoExecuted()" style="text;strokeColor=none;fillColor=none;align=left;verticalAlign=top;spacingLeft=4;spacingRight=4;overflow=hidden;rotatable=0;points=[[0,0.5],[1,0.5]];portConstraint=eastwest;whiteSpace=wrap;html=1;" parent="7sYmuncNVX-oGqdXBu7q-121" vertex="1">
          <mxGeometry y="26" width="210" height="26" as="geometry" />
        </mxCell>
        <mxCell id="7sYmuncNVX-oGqdXBu7q-123" value="+ DoUnExecute()" style="text;strokeColor=none;fillColor=none;align=left;verticalAlign=top;spacingLeft=4;spacingRight=4;overflow=hidden;rotatable=0;points=[[0,0.5],[1,0.5]];portConstraint=eastwest;whiteSpace=wrap;html=1;" parent="7sYmuncNVX-oGqdXBu7q-121" vertex="1">
          <mxGeometry y="52" width="210" height="26" as="geometry" />
        </mxCell>
        <mxCell id="7sYmuncNVX-oGqdXBu7q-124" value="- m_items :&amp;nbsp;&amp;nbsp;std::vector&amp;lt;CDocumentItem&amp;gt;&amp;amp;&lt;p style=&quot;border-color: var(--border-color); margin: 0px 0px 0px 4px;&quot;&gt;&lt;/p&gt;&lt;p style=&quot;border-color: var(--border-color); margin: 0px 0px 0px 4px;&quot;&gt;&lt;/p&gt;" style="text;strokeColor=none;fillColor=none;align=left;verticalAlign=top;spacingLeft=4;spacingRight=4;overflow=hidden;rotatable=0;points=[[0,0.5],[1,0.5]];portConstraint=eastwest;whiteSpace=wrap;html=1;" parent="7sYmuncNVX-oGqdXBu7q-121" vertex="1">
          <mxGeometry y="78" width="210" height="42" as="geometry" />
        </mxCell>
        <mxCell id="7sYmuncNVX-oGqdXBu7q-125" value="- m_item : CDocumentItem&lt;p style=&quot;border-color: var(--border-color); margin: 0px 0px 0px 4px;&quot;&gt;&lt;/p&gt;&lt;p style=&quot;border-color: var(--border-color); margin: 0px 0px 0px 4px;&quot;&gt;&lt;/p&gt;" style="text;strokeColor=none;fillColor=none;align=left;verticalAlign=top;spacingLeft=4;spacingRight=4;overflow=hidden;rotatable=0;points=[[0,0.5],[1,0.5]];portConstraint=eastwest;whiteSpace=wrap;html=1;" parent="7sYmuncNVX-oGqdXBu7q-121" vertex="1">
          <mxGeometry y="120" width="210" height="30" as="geometry" />
        </mxCell>
        <mxCell id="7sYmuncNVX-oGqdXBu7q-126" value="- m_pos : size_t&amp;nbsp;&lt;p style=&quot;border-color: var(--border-color); margin: 0px 0px 0px 4px;&quot;&gt;&lt;/p&gt;&lt;p style=&quot;border-color: var(--border-color); margin: 0px 0px 0px 4px;&quot;&gt;&lt;/p&gt;" style="text;strokeColor=none;fillColor=none;align=left;verticalAlign=top;spacingLeft=4;spacingRight=4;overflow=hidden;rotatable=0;points=[[0,0.5],[1,0.5]];portConstraint=eastwest;whiteSpace=wrap;html=1;" parent="7sYmuncNVX-oGqdXBu7q-121" vertex="1">
          <mxGeometry y="150" width="210" height="30" as="geometry" />
        </mxCell>
        <mxCell id="7sYmuncNVX-oGqdXBu7q-129" value="DeleteItemCommand" style="swimlane;fontStyle=0;childLayout=stackLayout;horizontal=1;startSize=26;fillColor=none;horizontalStack=0;resizeParent=1;resizeParentMax=0;resizeLast=0;collapsible=1;marginBottom=0;whiteSpace=wrap;html=1;" parent="1" vertex="1">
          <mxGeometry x="-360" y="1100" width="210" height="180" as="geometry" />
        </mxCell>
        <mxCell id="7sYmuncNVX-oGqdXBu7q-130" value="+ DoExecuted()" style="text;strokeColor=none;fillColor=none;align=left;verticalAlign=top;spacingLeft=4;spacingRight=4;overflow=hidden;rotatable=0;points=[[0,0.5],[1,0.5]];portConstraint=eastwest;whiteSpace=wrap;html=1;" parent="7sYmuncNVX-oGqdXBu7q-129" vertex="1">
          <mxGeometry y="26" width="210" height="26" as="geometry" />
        </mxCell>
        <mxCell id="7sYmuncNVX-oGqdXBu7q-131" value="+ DoUnExecute()" style="text;strokeColor=none;fillColor=none;align=left;verticalAlign=top;spacingLeft=4;spacingRight=4;overflow=hidden;rotatable=0;points=[[0,0.5],[1,0.5]];portConstraint=eastwest;whiteSpace=wrap;html=1;" parent="7sYmuncNVX-oGqdXBu7q-129" vertex="1">
          <mxGeometry y="52" width="210" height="26" as="geometry" />
        </mxCell>
        <mxCell id="7sYmuncNVX-oGqdXBu7q-132" value="- m_items :&amp;nbsp;&amp;nbsp;std::vector&amp;lt;CDocumentItem&amp;gt;&amp;amp;&lt;p style=&quot;border-color: var(--border-color); margin: 0px 0px 0px 4px;&quot;&gt;&lt;/p&gt;&lt;p style=&quot;border-color: var(--border-color); margin: 0px 0px 0px 4px;&quot;&gt;&lt;/p&gt;" style="text;strokeColor=none;fillColor=none;align=left;verticalAlign=top;spacingLeft=4;spacingRight=4;overflow=hidden;rotatable=0;points=[[0,0.5],[1,0.5]];portConstraint=eastwest;whiteSpace=wrap;html=1;" parent="7sYmuncNVX-oGqdXBu7q-129" vertex="1">
          <mxGeometry y="78" width="210" height="42" as="geometry" />
        </mxCell>
        <mxCell id="7sYmuncNVX-oGqdXBu7q-133" value="- m_item : CDocumentItem&lt;p style=&quot;border-color: var(--border-color); margin: 0px 0px 0px 4px;&quot;&gt;&lt;/p&gt;&lt;p style=&quot;border-color: var(--border-color); margin: 0px 0px 0px 4px;&quot;&gt;&lt;/p&gt;" style="text;strokeColor=none;fillColor=none;align=left;verticalAlign=top;spacingLeft=4;spacingRight=4;overflow=hidden;rotatable=0;points=[[0,0.5],[1,0.5]];portConstraint=eastwest;whiteSpace=wrap;html=1;" parent="7sYmuncNVX-oGqdXBu7q-129" vertex="1">
          <mxGeometry y="120" width="210" height="30" as="geometry" />
        </mxCell>
        <mxCell id="7sYmuncNVX-oGqdXBu7q-134" value="- m_index: size_t&amp;nbsp;&lt;p style=&quot;border-color: var(--border-color); margin: 0px 0px 0px 4px;&quot;&gt;&lt;/p&gt;&lt;p style=&quot;border-color: var(--border-color); margin: 0px 0px 0px 4px;&quot;&gt;&lt;/p&gt;" style="text;strokeColor=none;fillColor=none;align=left;verticalAlign=top;spacingLeft=4;spacingRight=4;overflow=hidden;rotatable=0;points=[[0,0.5],[1,0.5]];portConstraint=eastwest;whiteSpace=wrap;html=1;" parent="7sYmuncNVX-oGqdXBu7q-129" vertex="1">
          <mxGeometry y="150" width="210" height="30" as="geometry" />
        </mxCell>
        <mxCell id="7sYmuncNVX-oGqdXBu7q-115" value="ChangeStringCommand" style="swimlane;fontStyle=0;childLayout=stackLayout;horizontal=1;startSize=26;fillColor=none;horizontalStack=0;resizeParent=1;resizeParentMax=0;resizeLast=0;collapsible=1;marginBottom=0;whiteSpace=wrap;html=1;" parent="1" vertex="1">
          <mxGeometry x="-650" y="1580" width="170" height="130" as="geometry" />
        </mxCell>
        <mxCell id="7sYmuncNVX-oGqdXBu7q-116" value="+ DoExecuted()" style="text;strokeColor=none;fillColor=none;align=left;verticalAlign=top;spacingLeft=4;spacingRight=4;overflow=hidden;rotatable=0;points=[[0,0.5],[1,0.5]];portConstraint=eastwest;whiteSpace=wrap;html=1;" parent="7sYmuncNVX-oGqdXBu7q-115" vertex="1">
          <mxGeometry y="26" width="170" height="26" as="geometry" />
        </mxCell>
        <mxCell id="7sYmuncNVX-oGqdXBu7q-117" value="+ DoUnExecute()" style="text;strokeColor=none;fillColor=none;align=left;verticalAlign=top;spacingLeft=4;spacingRight=4;overflow=hidden;rotatable=0;points=[[0,0.5],[1,0.5]];portConstraint=eastwest;whiteSpace=wrap;html=1;" parent="7sYmuncNVX-oGqdXBu7q-115" vertex="1">
          <mxGeometry y="52" width="170" height="26" as="geometry" />
        </mxCell>
        <mxCell id="7sYmuncNVX-oGqdXBu7q-118" value="+ m_newValue :&amp;nbsp;&amp;nbsp;std::string" style="text;strokeColor=none;fillColor=none;align=left;verticalAlign=top;spacingLeft=4;spacingRight=4;overflow=hidden;rotatable=0;points=[[0,0.5],[1,0.5]];portConstraint=eastwest;whiteSpace=wrap;html=1;" parent="7sYmuncNVX-oGqdXBu7q-115" vertex="1">
          <mxGeometry y="78" width="170" height="26" as="geometry" />
        </mxCell>
        <mxCell id="7sYmuncNVX-oGqdXBu7q-119" value="+ m_target : std::string&amp;amp;" style="text;strokeColor=none;fillColor=none;align=left;verticalAlign=top;spacingLeft=4;spacingRight=4;overflow=hidden;rotatable=0;points=[[0,0.5],[1,0.5]];portConstraint=eastwest;whiteSpace=wrap;html=1;" parent="7sYmuncNVX-oGqdXBu7q-115" vertex="1">
          <mxGeometry y="104" width="170" height="26" as="geometry" />
        </mxCell>
        <mxCell id="7sYmuncNVX-oGqdXBu7q-137" value="CMenu" style="swimlane;fontStyle=0;childLayout=stackLayout;horizontal=1;startSize=26;fillColor=none;horizontalStack=0;resizeParent=1;resizeParentMax=0;resizeLast=0;collapsible=1;marginBottom=0;whiteSpace=wrap;html=1;" parent="1" vertex="1">
          <mxGeometry x="730" y="1040" width="320" height="286" as="geometry" />
        </mxCell>
        <mxCell id="7sYmuncNVX-oGqdXBu7q-138" value="&amp;nbsp;Command = std::function&amp;lt;void(std::istream&amp;amp; args)&amp;gt;" style="text;strokeColor=none;fillColor=none;align=left;verticalAlign=top;spacingLeft=4;spacingRight=4;overflow=hidden;rotatable=0;points=[[0,0.5],[1,0.5]];portConstraint=eastwest;whiteSpace=wrap;html=1;" parent="7sYmuncNVX-oGqdXBu7q-137" vertex="1">
          <mxGeometry y="26" width="320" height="54" as="geometry" />
        </mxCell>
        <mxCell id="7sYmuncNVX-oGqdXBu7q-139" value="+&amp;nbsp;AddItem(const std::string&amp;amp; shortcut, const std::string&amp;amp; description, const Command&amp;amp; command)" style="text;strokeColor=none;fillColor=none;align=left;verticalAlign=top;spacingLeft=4;spacingRight=4;overflow=hidden;rotatable=0;points=[[0,0.5],[1,0.5]];portConstraint=eastwest;whiteSpace=wrap;html=1;" parent="7sYmuncNVX-oGqdXBu7q-137" vertex="1">
          <mxGeometry y="80" width="320" height="50" as="geometry" />
        </mxCell>
        <mxCell id="7sYmuncNVX-oGqdXBu7q-140" value="+&amp;nbsp;Run()" style="text;strokeColor=none;fillColor=none;align=left;verticalAlign=top;spacingLeft=4;spacingRight=4;overflow=hidden;rotatable=0;points=[[0,0.5],[1,0.5]];portConstraint=eastwest;whiteSpace=wrap;html=1;" parent="7sYmuncNVX-oGqdXBu7q-137" vertex="1">
          <mxGeometry y="130" width="320" height="26" as="geometry" />
        </mxCell>
        <mxCell id="7sYmuncNVX-oGqdXBu7q-141" value="+&amp;nbsp;ShowInstructions()" style="text;strokeColor=none;fillColor=none;align=left;verticalAlign=top;spacingLeft=4;spacingRight=4;overflow=hidden;rotatable=0;points=[[0,0.5],[1,0.5]];portConstraint=eastwest;whiteSpace=wrap;html=1;" parent="7sYmuncNVX-oGqdXBu7q-137" vertex="1">
          <mxGeometry y="156" width="320" height="26" as="geometry" />
        </mxCell>
        <mxCell id="7sYmuncNVX-oGqdXBu7q-142" value="+&amp;nbsp;Exit()" style="text;strokeColor=none;fillColor=none;align=left;verticalAlign=top;spacingLeft=4;spacingRight=4;overflow=hidden;rotatable=0;points=[[0,0.5],[1,0.5]];portConstraint=eastwest;whiteSpace=wrap;html=1;" parent="7sYmuncNVX-oGqdXBu7q-137" vertex="1">
          <mxGeometry y="182" width="320" height="26" as="geometry" />
        </mxCell>
        <mxCell id="7sYmuncNVX-oGqdXBu7q-143" value="+ ExecuteCommand(const std::string&amp;amp; command) : bool" style="text;strokeColor=none;fillColor=none;align=left;verticalAlign=top;spacingLeft=4;spacingRight=4;overflow=hidden;rotatable=0;points=[[0,0.5],[1,0.5]];portConstraint=eastwest;whiteSpace=wrap;html=1;" parent="7sYmuncNVX-oGqdXBu7q-137" vertex="1">
          <mxGeometry y="208" width="320" height="26" as="geometry" />
        </mxCell>
        <mxCell id="7sYmuncNVX-oGqdXBu7q-144" value="- m_items : std::vector&amp;lt;Item&amp;gt;" style="text;strokeColor=none;fillColor=none;align=left;verticalAlign=top;spacingLeft=4;spacingRight=4;overflow=hidden;rotatable=0;points=[[0,0.5],[1,0.5]];portConstraint=eastwest;whiteSpace=wrap;html=1;" parent="7sYmuncNVX-oGqdXBu7q-137" vertex="1">
          <mxGeometry y="234" width="320" height="26" as="geometry" />
        </mxCell>
        <mxCell id="7sYmuncNVX-oGqdXBu7q-150" value="-&amp;nbsp;m_exit : bool" style="text;strokeColor=none;fillColor=none;align=left;verticalAlign=top;spacingLeft=4;spacingRight=4;overflow=hidden;rotatable=0;points=[[0,0.5],[1,0.5]];portConstraint=eastwest;whiteSpace=wrap;html=1;" parent="7sYmuncNVX-oGqdXBu7q-137" vertex="1">
          <mxGeometry y="260" width="320" height="26" as="geometry" />
        </mxCell>
        <mxCell id="7sYmuncNVX-oGqdXBu7q-145" value="Item" style="swimlane;fontStyle=0;childLayout=stackLayout;horizontal=1;startSize=26;fillColor=none;horizontalStack=0;resizeParent=1;resizeParentMax=0;resizeLast=0;collapsible=1;marginBottom=0;whiteSpace=wrap;html=1;" parent="1" vertex="1">
          <mxGeometry x="470" y="1020" width="160" height="104" as="geometry" />
        </mxCell>
        <mxCell id="7sYmuncNVX-oGqdXBu7q-146" value="- shortcut : std::string" style="text;strokeColor=none;fillColor=none;align=left;verticalAlign=top;spacingLeft=4;spacingRight=4;overflow=hidden;rotatable=0;points=[[0,0.5],[1,0.5]];portConstraint=eastwest;whiteSpace=wrap;html=1;" parent="7sYmuncNVX-oGqdXBu7q-145" vertex="1">
          <mxGeometry y="26" width="160" height="26" as="geometry" />
        </mxCell>
        <mxCell id="7sYmuncNVX-oGqdXBu7q-147" value="- description : std::string" style="text;strokeColor=none;fillColor=none;align=left;verticalAlign=top;spacingLeft=4;spacingRight=4;overflow=hidden;rotatable=0;points=[[0,0.5],[1,0.5]];portConstraint=eastwest;whiteSpace=wrap;html=1;" parent="7sYmuncNVX-oGqdXBu7q-145" vertex="1">
          <mxGeometry y="52" width="160" height="26" as="geometry" />
        </mxCell>
        <mxCell id="7sYmuncNVX-oGqdXBu7q-148" value="- command :&amp;nbsp;Command" style="text;strokeColor=none;fillColor=none;align=left;verticalAlign=top;spacingLeft=4;spacingRight=4;overflow=hidden;rotatable=0;points=[[0,0.5],[1,0.5]];portConstraint=eastwest;whiteSpace=wrap;html=1;" parent="7sYmuncNVX-oGqdXBu7q-145" vertex="1">
          <mxGeometry y="78" width="160" height="26" as="geometry" />
        </mxCell>
        <mxCell id="7sYmuncNVX-oGqdXBu7q-149" value="" style="endArrow=diamondThin;endFill=1;endSize=24;html=1;rounded=0;entryX=0;entryY=0.5;entryDx=0;entryDy=0;exitX=1;exitY=0.5;exitDx=0;exitDy=0;" parent="1" source="7sYmuncNVX-oGqdXBu7q-146" target="7sYmuncNVX-oGqdXBu7q-139" edge="1">
          <mxGeometry width="160" relative="1" as="geometry">
            <mxPoint x="720" y="1080" as="sourcePoint" />
            <mxPoint x="880" y="1080" as="targetPoint" />
          </mxGeometry>
        </mxCell>
        <mxCell id="7sYmuncNVX-oGqdXBu7q-151" value="CEditor" style="swimlane;fontStyle=0;childLayout=stackLayout;horizontal=1;startSize=26;fillColor=none;horizontalStack=0;resizeParent=1;resizeParentMax=0;resizeLast=0;collapsible=1;marginBottom=0;whiteSpace=wrap;html=1;" parent="1" vertex="1">
          <mxGeometry x="1010" y="220" width="310" height="500" as="geometry" />
        </mxCell>
        <mxCell id="7sYmuncNVX-oGqdXBu7q-152" value="+&amp;nbsp;Start()" style="text;strokeColor=none;fillColor=none;align=left;verticalAlign=top;spacingLeft=4;spacingRight=4;overflow=hidden;rotatable=0;points=[[0,0.5],[1,0.5]];portConstraint=eastwest;whiteSpace=wrap;html=1;" parent="7sYmuncNVX-oGqdXBu7q-151" vertex="1">
          <mxGeometry y="26" width="310" height="26" as="geometry" />
        </mxCell>
        <mxCell id="7sYmuncNVX-oGqdXBu7q-153" value="(CEditor::* MenuHandler)(std::istream&amp;amp; args)" style="text;strokeColor=none;fillColor=none;align=left;verticalAlign=top;spacingLeft=4;spacingRight=4;overflow=hidden;rotatable=0;points=[[0,0.5],[1,0.5]];portConstraint=eastwest;whiteSpace=wrap;html=1;" parent="7sYmuncNVX-oGqdXBu7q-151" vertex="1">
          <mxGeometry y="52" width="310" height="28" as="geometry" />
        </mxCell>
        <mxCell id="7sYmuncNVX-oGqdXBu7q-154" value="+&amp;nbsp;AddMenuItem(const std::string&amp;amp; shortcut, const std::string&amp;amp; description, MenuHandler handler)" style="text;strokeColor=none;fillColor=none;align=left;verticalAlign=top;spacingLeft=4;spacingRight=4;overflow=hidden;rotatable=0;points=[[0,0.5],[1,0.5]];portConstraint=eastwest;whiteSpace=wrap;html=1;" parent="7sYmuncNVX-oGqdXBu7q-151" vertex="1">
          <mxGeometry y="80" width="310" height="60" as="geometry" />
        </mxCell>
        <mxCell id="7sYmuncNVX-oGqdXBu7q-155" value="+&amp;nbsp;InsertParagraph(std::istream&amp;amp; args)" style="text;strokeColor=none;fillColor=none;align=left;verticalAlign=top;spacingLeft=4;spacingRight=4;overflow=hidden;rotatable=0;points=[[0,0.5],[1,0.5]];portConstraint=eastwest;whiteSpace=wrap;html=1;" parent="7sYmuncNVX-oGqdXBu7q-151" vertex="1">
          <mxGeometry y="140" width="310" height="30" as="geometry" />
        </mxCell>
        <mxCell id="7sYmuncNVX-oGqdXBu7q-156" value="+&amp;nbsp;InsertImage(std::istream&amp;amp; args)" style="text;strokeColor=none;fillColor=none;align=left;verticalAlign=top;spacingLeft=4;spacingRight=4;overflow=hidden;rotatable=0;points=[[0,0.5],[1,0.5]];portConstraint=eastwest;whiteSpace=wrap;html=1;" parent="7sYmuncNVX-oGqdXBu7q-151" vertex="1">
          <mxGeometry y="170" width="310" height="30" as="geometry" />
        </mxCell>
        <mxCell id="7sYmuncNVX-oGqdXBu7q-157" value="+&amp;nbsp;SetTitle(std::istream&amp;amp; args)" style="text;strokeColor=none;fillColor=none;align=left;verticalAlign=top;spacingLeft=4;spacingRight=4;overflow=hidden;rotatable=0;points=[[0,0.5],[1,0.5]];portConstraint=eastwest;whiteSpace=wrap;html=1;" parent="7sYmuncNVX-oGqdXBu7q-151" vertex="1">
          <mxGeometry y="200" width="310" height="30" as="geometry" />
        </mxCell>
        <mxCell id="7sYmuncNVX-oGqdXBu7q-158" value="+&amp;nbsp;List(std::istream&amp;amp; args)" style="text;strokeColor=none;fillColor=none;align=left;verticalAlign=top;spacingLeft=4;spacingRight=4;overflow=hidden;rotatable=0;points=[[0,0.5],[1,0.5]];portConstraint=eastwest;whiteSpace=wrap;html=1;" parent="7sYmuncNVX-oGqdXBu7q-151" vertex="1">
          <mxGeometry y="230" width="310" height="30" as="geometry" />
        </mxCell>
        <mxCell id="7sYmuncNVX-oGqdXBu7q-159" value="+&amp;nbsp;ReplaceText(std::istream&amp;amp; args)" style="text;strokeColor=none;fillColor=none;align=left;verticalAlign=top;spacingLeft=4;spacingRight=4;overflow=hidden;rotatable=0;points=[[0,0.5],[1,0.5]];portConstraint=eastwest;whiteSpace=wrap;html=1;" parent="7sYmuncNVX-oGqdXBu7q-151" vertex="1">
          <mxGeometry y="260" width="310" height="30" as="geometry" />
        </mxCell>
        <mxCell id="7sYmuncNVX-oGqdXBu7q-160" value="+&amp;nbsp;ResizeImage(std::istream&amp;amp; args)" style="text;strokeColor=none;fillColor=none;align=left;verticalAlign=top;spacingLeft=4;spacingRight=4;overflow=hidden;rotatable=0;points=[[0,0.5],[1,0.5]];portConstraint=eastwest;whiteSpace=wrap;html=1;" parent="7sYmuncNVX-oGqdXBu7q-151" vertex="1">
          <mxGeometry y="290" width="310" height="30" as="geometry" />
        </mxCell>
        <mxCell id="7sYmuncNVX-oGqdXBu7q-161" value="+&amp;nbsp;DeleteItem(std::istream&amp;amp; args)" style="text;strokeColor=none;fillColor=none;align=left;verticalAlign=top;spacingLeft=4;spacingRight=4;overflow=hidden;rotatable=0;points=[[0,0.5],[1,0.5]];portConstraint=eastwest;whiteSpace=wrap;html=1;" parent="7sYmuncNVX-oGqdXBu7q-151" vertex="1">
          <mxGeometry y="320" width="310" height="30" as="geometry" />
        </mxCell>
        <mxCell id="7sYmuncNVX-oGqdXBu7q-162" value="+ Undo(std::istream&amp;amp; args)" style="text;strokeColor=none;fillColor=none;align=left;verticalAlign=top;spacingLeft=4;spacingRight=4;overflow=hidden;rotatable=0;points=[[0,0.5],[1,0.5]];portConstraint=eastwest;whiteSpace=wrap;html=1;" parent="7sYmuncNVX-oGqdXBu7q-151" vertex="1">
          <mxGeometry y="350" width="310" height="30" as="geometry" />
        </mxCell>
        <mxCell id="7sYmuncNVX-oGqdXBu7q-163" value="+&amp;nbsp;Redo(std::istream&amp;amp; args)" style="text;strokeColor=none;fillColor=none;align=left;verticalAlign=top;spacingLeft=4;spacingRight=4;overflow=hidden;rotatable=0;points=[[0,0.5],[1,0.5]];portConstraint=eastwest;whiteSpace=wrap;html=1;" parent="7sYmuncNVX-oGqdXBu7q-151" vertex="1">
          <mxGeometry y="380" width="310" height="30" as="geometry" />
        </mxCell>
        <mxCell id="7sYmuncNVX-oGqdXBu7q-164" value="+&amp;nbsp;Save(std::istream&amp;amp; args)" style="text;strokeColor=none;fillColor=none;align=left;verticalAlign=top;spacingLeft=4;spacingRight=4;overflow=hidden;rotatable=0;points=[[0,0.5],[1,0.5]];portConstraint=eastwest;whiteSpace=wrap;html=1;" parent="7sYmuncNVX-oGqdXBu7q-151" vertex="1">
          <mxGeometry y="410" width="310" height="30" as="geometry" />
        </mxCell>
        <mxCell id="7sYmuncNVX-oGqdXBu7q-165" value="- m_menu : CMenu" style="text;strokeColor=none;fillColor=none;align=left;verticalAlign=top;spacingLeft=4;spacingRight=4;overflow=hidden;rotatable=0;points=[[0,0.5],[1,0.5]];portConstraint=eastwest;whiteSpace=wrap;html=1;" parent="7sYmuncNVX-oGqdXBu7q-151" vertex="1">
          <mxGeometry y="440" width="310" height="30" as="geometry" />
        </mxCell>
        <mxCell id="7sYmuncNVX-oGqdXBu7q-166" value="- m_document : std::unique_ptr&amp;lt;IDocument&amp;gt;" style="text;strokeColor=none;fillColor=none;align=left;verticalAlign=top;spacingLeft=4;spacingRight=4;overflow=hidden;rotatable=0;points=[[0,0.5],[1,0.5]];portConstraint=eastwest;whiteSpace=wrap;html=1;" parent="7sYmuncNVX-oGqdXBu7q-151" vertex="1">
          <mxGeometry y="470" width="310" height="30" as="geometry" />
        </mxCell>
        <mxCell id="7sYmuncNVX-oGqdXBu7q-167" value="" style="endArrow=diamondThin;endFill=1;endSize=24;html=1;rounded=0;exitX=1.002;exitY=0.677;exitDx=0;exitDy=0;exitPerimeter=0;entryX=-0.001;entryY=0.835;entryDx=0;entryDy=0;entryPerimeter=0;" parent="1" source="7sYmuncNVX-oGqdXBu7q-1" target="7sYmuncNVX-oGqdXBu7q-156" edge="1">
          <mxGeometry width="160" relative="1" as="geometry">
            <mxPoint x="990" y="410" as="sourcePoint" />
            <mxPoint x="1150" y="410" as="targetPoint" />
          </mxGeometry>
        </mxCell>
        <mxCell id="7sYmuncNVX-oGqdXBu7q-169" value="" style="endArrow=diamondThin;endFill=1;endSize=24;html=1;rounded=0;entryX=0.5;entryY=0;entryDx=0;entryDy=0;exitX=0.039;exitY=1;exitDx=0;exitDy=0;exitPerimeter=0;" parent="1" source="7sYmuncNVX-oGqdXBu7q-166" target="7sYmuncNVX-oGqdXBu7q-137" edge="1">
          <mxGeometry width="160" relative="1" as="geometry">
            <mxPoint x="780" y="900" as="sourcePoint" />
            <mxPoint x="940" y="900" as="targetPoint" />
          </mxGeometry>
        </mxCell>
      </root>
    </mxGraphModel>
  </diagram>
</mxfile>
